<svg width="215" height="60" viewBox="0 0 215 60" fill="none" xmlns="http://www.w3.org/2000/svg">
<path d="M52.5407 13.3727C55.0804 15.6791 57.0288 18.8168 57.2438 22.3166C57.3736 26.0577 56.1903 29.3295 53.6829 32.1052C50.5385 35.4709 46.0773 36.7447 41.7504 37.9113C37.8132 38.8567 37.8132 38.8567 34.7763 41.3441C34.5963 41.7504 34.5963 41.7503 34.4565 42.2076C34.4288 42.2926 34.4013 42.3779 34.3728 42.4651C34.1618 43.1275 33.9858 43.7979 33.8098 44.463C33.0438 47.3862 33.0438 47.3862 32.2376 48.1505C31.6799 48.4723 31.0954 48.3972 30.4773 48.3154C28.6498 47.818 27.2657 46.7734 25.9085 45.4995C25.7244 45.34 25.5403 45.1804 25.3549 45.0222C23.0033 42.9572 21.4043 40.4363 21.149 37.2717C20.9555 33.3428 22.8824 29.709 25.4355 26.8528C25.6398 26.6316 25.844 26.4104 26.0483 26.1904C26.1276 26.1025 26.2068 26.0148 26.2888 25.9236C29.2047 22.8261 33.5451 20.9354 37.6032 19.8895C37.9767 21.2251 38.2374 22.5445 38.392 23.9256C38.4061 24.0406 38.4203 24.1549 38.4348 24.2743C38.4462 24.3765 38.4575 24.4781 38.4692 24.584C38.5605 24.9152 38.6708 25.052 38.9463 25.2558C39.7498 25.246 40.3034 24.9327 40.9753 24.5344C41.1917 24.4108 41.408 24.2877 41.6257 24.1657C41.795 24.0699 41.795 24.0699 41.967 23.9726C43.3914 23.1761 44.8695 22.4708 46.3745 21.8405C46.5169 21.7815 46.5169 21.7815 46.6621 21.7213C47.1364 21.5256 47.6108 21.3338 48.0864 21.1447C48.2611 21.0742 48.4345 21.0039 48.6092 20.9329C48.7637 20.8713 48.9196 20.8098 49.0795 20.7465C49.4719 20.5936 49.4719 20.5936 49.5646 20.1618C48.6763 17.8689 45.2511 16.5146 43.1549 15.5759C40.2121 14.3021 37.2961 13.645 34.1114 13.3232C34.4326 13.9065 34.7551 14.4214 35.1864 14.9323C36.2614 16.2451 36.2614 16.2451 36.2614 16.8096C36.1406 16.8189 36.0196 16.8283 35.8959 16.838C27.5781 17.495 19.9053 19.426 13.7241 25.2589C13.5982 25.3757 13.4728 25.4922 13.3424 25.6129C11.1924 27.6511 9.44557 30.2122 8.20932 32.9075H7.94057C6.15338 29.3272 5.99213 25.224 7.15985 21.4159C8.94704 16.4277 13.2336 12.6597 17.9367 10.4338C28.1492 5.76746 43.7367 5.59314 52.6055 13.3838L52.5407 13.3727Z" fill="white"/>
<path d="M179.122 21.016C179.579 21.4357 179.884 21.9345 180.193 22.4641L180.462 22.8664L180.671 22.5231C181.535 21.2546 182.727 20.4715 184.246 20.1363C185.683 19.9151 187.363 19.9473 188.586 20.8229C188.75 20.9637 188.91 21.1085 189.064 21.2587C189.176 21.3645 189.176 21.3645 189.29 21.4719C190.768 23.0139 190.714 25.2935 190.714 27.2914C190.715 27.4939 190.715 27.6977 190.716 27.9002C190.717 28.3226 190.717 28.7436 190.716 29.166C190.716 29.705 190.718 30.2441 190.721 30.7885C190.723 31.2069 190.723 31.6239 190.723 32.0423C190.723 32.2407 190.723 32.4392 190.725 32.639C190.726 32.9165 190.726 33.1941 190.724 33.4717C190.724 33.6285 190.724 33.7868 190.724 33.949C190.653 34.5873 190.484 35.1411 190.003 35.5983C189.391 35.9416 188.804 35.9483 188.121 35.8826C187.557 35.6734 187.221 35.4629 186.912 34.944C186.76 34.4908 186.759 34.1435 186.756 33.6661C186.755 33.5777 186.755 33.4891 186.754 33.3979C186.753 33.2062 186.751 33.0144 186.751 32.8227C186.749 32.5183 186.746 32.2139 186.743 31.9095C186.735 31.0433 186.728 30.1797 186.723 29.3081C186.721 28.7785 186.716 28.2488 186.71 27.7125C186.708 27.5113 186.707 27.3102 186.706 27.109C186.73 25.3256 186.73 25.3256 185.979 23.7434C185.148 23.1145 184.3 23.1788 183.278 23.266C182.553 23.435 182.174 23.789 181.747 24.3897C180.942 25.7225 180.971 27.0715 180.962 28.5867C180.959 28.8549 180.956 29.1231 180.953 29.3913C180.946 30.0497 180.94 30.708 180.936 31.3624C180.934 31.7338 180.931 32.1039 180.926 32.4754C180.922 32.824 180.919 33.1726 180.918 33.5213C180.915 33.7586 180.915 33.7586 180.912 34C180.911 34.1381 180.91 34.2775 180.908 34.4197C180.847 34.8608 180.715 35.1116 180.453 35.4696C179.808 35.9135 179.196 35.9738 178.437 35.8719C177.948 35.6828 177.556 35.4817 177.228 35.0673C177.079 34.6222 177.075 34.2829 177.071 33.8136C177.069 33.6379 177.067 33.4623 177.065 33.2799C177.064 33.1858 177.064 33.0922 177.063 32.9943C177.061 32.6993 177.058 32.403 177.054 32.108C177.045 31.2672 177.037 30.4318 177.03 29.587C177.026 29.0721 177.02 28.5586 177.014 28.045C177.012 27.8492 177.01 27.6548 177.009 27.459C177.037 25.4343 177.037 25.4343 176.153 23.6643C175.412 23.0957 174.487 23.1681 173.6 23.262C172.841 23.4578 172.329 23.8922 171.893 24.5399C171.245 25.7239 171.251 27.0876 171.255 28.4017C171.254 28.5814 171.252 28.761 171.25 28.9407C171.245 29.5991 171.243 30.2575 171.242 30.9119C171.24 31.3825 171.238 31.8518 171.234 32.3198C171.231 32.6711 171.23 33.0211 171.231 33.3724C171.23 33.5307 171.228 33.6889 171.227 33.8525C171.227 33.9919 171.226 34.13 171.226 34.2735C171.146 34.8702 170.839 35.3516 170.369 35.7217C169.631 35.9483 168.891 35.9523 168.165 35.6965C167.75 35.4095 167.618 35.2433 167.41 34.7833C167.351 34.3475 167.355 33.9144 167.358 33.4746C167.357 33.3435 167.356 33.2118 167.355 33.0777C167.354 32.6446 167.355 32.2115 167.356 31.7797C167.356 31.478 167.356 31.1776 167.355 30.8759C167.354 30.2457 167.355 29.6141 167.357 28.9852C167.359 28.1767 167.358 27.3627 167.356 26.5582C167.354 25.936 167.355 25.3152 167.356 24.6943C167.356 24.3967 167.356 24.0976 167.355 23.8C167.354 23.3829 167.355 22.9672 167.358 22.5502C167.357 22.427 167.356 22.3035 167.355 22.1775C167.362 21.5311 167.392 21.0967 167.813 20.5684C168.345 20.087 168.918 20.0977 169.601 20.1205C170.131 20.1873 170.391 20.319 170.764 20.7025C170.944 21.0953 171.06 21.4922 171.167 21.9093L171.302 22.3115C171.354 22.2434 171.406 22.1748 171.46 22.105C173.288 19.8657 176.687 19.2489 179.093 20.9948L179.122 21.016Z" fill="white"/>
<path d="M128.059 21.5523C128.358 21.8285 128.579 22.0886 128.815 22.4158C128.836 22.3155 128.857 22.2147 128.879 22.1114C129.137 21.0213 129.137 21.0213 129.562 20.5828C130.255 20.1926 130.846 20.2006 131.631 20.2637C132.138 20.4742 132.422 20.7343 132.706 21.2023C132.819 21.5737 132.858 21.9076 132.858 22.2951C132.859 22.4601 132.859 22.4601 132.86 22.6277C132.86 22.806 132.86 22.806 132.859 22.9884C132.86 23.115 132.86 23.2418 132.861 23.3719C132.862 23.7916 132.862 24.21 132.862 24.6297C132.863 24.922 132.863 25.2143 132.864 25.5066C132.865 26.1208 132.865 26.7349 132.865 27.3437C132.865 28.1254 132.867 28.9125 132.869 29.6903C132.87 30.295 132.871 30.8998 132.871 31.5005C132.871 31.7888 132.871 32.0771 132.872 32.3654C132.881 35.1142 132.861 37.7022 130.857 39.8208C129.311 41.2958 127.188 41.6579 125.119 41.6445C124.955 41.6436 124.791 41.6426 124.623 41.6417C122.527 41.6049 120.189 41.3333 118.442 40.0728C118.121 39.5968 118.008 39.2133 118.064 38.638C118.227 38.1754 118.462 37.8147 118.845 37.4983C119.604 37.3253 120.243 37.6169 120.941 37.8925C122.836 38.6354 125.013 38.9612 126.975 38.2612C127.796 37.8965 128.249 37.3642 128.654 36.5583C128.965 35.6907 128.974 34.8687 128.965 33.9569C128.964 33.8391 128.964 33.7209 128.963 33.6002C128.961 33.312 128.959 33.0223 128.956 32.734C128.906 32.8082 128.855 32.8829 128.802 32.958C127.907 34.2439 126.719 34.9425 125.187 35.2777C123.252 35.4494 121.438 35.2778 119.852 34.0669C118.227 32.6589 117.367 30.8219 117.178 28.6898C117.01 26.303 117.463 23.9698 119.046 22.1194C121.411 19.6655 125.416 19.451 128.063 21.5441L128.059 21.5523ZM122.093 24.2877C121.134 25.4852 120.944 26.9696 121.046 28.458C121.234 29.8525 121.728 30.9387 122.833 31.8371C123.848 32.4941 124.97 32.5705 126.126 32.3238C127.281 32.0114 127.993 31.2779 128.598 30.2722C129.226 28.8911 129.203 26.8663 128.731 25.4315C128.228 24.3266 127.504 23.6884 126.393 23.2056C124.834 22.7055 123.195 23.1048 122.093 24.2784L122.093 24.2877Z" fill="white"/>
<path d="M140.019 13.6409C140.457 13.9896 140.649 14.1853 140.825 14.7137C140.841 14.9631 140.849 15.2111 140.852 15.4605C140.855 15.6134 140.858 15.7663 140.861 15.9245C140.863 16.0894 140.865 16.2544 140.867 16.4247C140.87 16.5936 140.873 16.7626 140.876 16.9369C140.883 17.3861 140.89 17.8353 140.896 18.2778C140.903 18.7364 140.911 19.195 140.918 19.6589C140.932 20.5587 140.946 21.4558 140.959 22.3542C141.042 22.2704 141.125 22.1865 141.209 22.1007C141.318 21.9913 141.426 21.8822 141.538 21.7695C141.646 21.6608 141.753 21.5523 141.864 21.4397C142.961 20.3911 144.457 20.0853 145.935 20.0451C147.36 20.081 148.69 20.3736 149.778 21.3404C151.324 23.0434 151.337 25.2827 151.337 27.4416C151.338 27.585 151.338 27.585 151.338 27.7299C151.34 28.234 151.341 28.7369 151.342 29.2451C151.343 29.7627 151.346 30.2803 151.35 30.8005C151.352 31.2015 151.353 31.6024 151.353 32.0033C151.354 32.1938 151.355 32.3842 151.357 32.5759C151.373 34.4666 151.373 34.4666 150.906 35.365C150.349 35.8652 149.783 35.9818 149.039 35.9443C148.473 35.8589 148.082 35.6506 147.7 35.2309C147.395 34.7187 147.388 34.295 147.384 33.7157C147.383 33.54 147.382 33.3644 147.38 33.1833C147.38 33.0895 147.379 32.9956 147.379 32.8991C147.377 32.6041 147.375 32.3091 147.372 32.0141C147.363 31.1747 147.356 30.3379 147.352 29.4932C147.349 28.9796 147.344 28.466 147.338 27.9511C147.336 27.7567 147.335 27.5623 147.335 27.3678C147.345 25.4905 147.345 25.4905 146.548 23.8278C145.659 23.152 144.721 23.2137 143.646 23.2915C142.912 23.439 142.248 23.7876 141.765 24.3642C141.192 25.3001 140.942 26.1074 140.94 27.2069C140.939 27.3705 140.938 27.5341 140.937 27.703C140.936 27.8787 140.936 28.0544 140.935 28.2354C140.934 28.4191 140.932 28.6028 140.931 28.7865C140.923 29.5642 140.917 30.342 140.915 31.1197C140.914 31.5957 140.91 32.0717 140.904 32.5545C140.902 32.8226 140.902 33.0908 140.902 33.3603C140.882 34.8756 140.882 34.8756 140.287 35.5058C139.646 35.951 139.029 36.022 138.271 35.9081C137.888 35.7911 137.626 35.6385 137.331 35.3717C136.841 34.4116 136.871 33.4944 136.878 32.4351C136.877 32.2474 136.877 32.0597 136.876 31.8719C136.875 31.3651 136.876 30.8582 136.878 30.3567C136.88 29.8257 136.879 29.2934 136.879 28.761C136.879 27.868 136.88 26.9776 136.883 26.0792C136.885 25.0494 136.886 24.0142 136.885 22.9951C136.884 22.0015 136.885 21.0106 136.887 20.0183C136.887 19.5959 136.887 19.1749 136.887 18.7525C136.887 18.255 136.888 17.7589 136.89 17.2641C136.891 16.9959 136.89 16.7277 136.89 16.4595C136.901 14.5822 136.901 14.5822 137.375 13.9654C138.248 13.299 139.001 13.3218 140.022 13.6624L140.019 13.6409Z" fill="white"/>
<path d="M89.225 21.15C90.382 22.1892 90.7703 23.8855 90.8913 25.3739C90.9132 26.0578 90.9168 26.7416 90.9185 27.4255C90.9191 27.5703 90.9191 27.5703 90.9197 27.7191C90.9217 28.23 90.9229 28.7423 90.9235 29.2478C90.9243 29.7734 90.9275 30.2991 90.9313 30.8301C90.9338 31.2377 90.9345 31.644 90.9347 32.0516C90.9351 32.2461 90.9362 32.4391 90.938 32.6336C90.9541 34.5243 90.9541 34.5243 90.4878 35.302C89.9315 35.8236 89.3792 35.8772 88.6469 35.8678C88.0691 35.8126 87.6754 35.593 87.2897 35.1679C86.982 34.6516 86.978 34.2226 86.9739 33.6393C86.9732 33.5522 86.9726 33.4649 86.9719 33.3751C86.9704 33.186 86.9693 32.997 86.9683 32.8079C86.9668 32.5075 86.9641 32.2085 86.9612 31.9081C86.9529 31.0553 86.9456 30.2052 86.9412 29.347C86.9384 28.8254 86.9336 28.3024 86.9276 27.7781C86.9257 27.5797 86.9245 27.3826 86.9241 27.1841C86.9344 25.3605 86.9344 25.3605 86.138 23.7782C85.2565 23.0876 84.3105 23.156 83.2355 23.2338C82.5005 23.3813 81.838 23.7299 81.3543 24.3065C80.7509 25.2787 80.5332 26.1436 80.5265 27.2833C80.5244 27.5261 80.5244 27.5261 80.5223 27.7728C80.5214 27.9458 80.5204 28.1187 80.5194 28.2957C80.5176 28.4768 80.5158 28.6564 80.5138 28.8375C80.5056 29.6018 80.4982 30.3661 80.4938 31.1304C80.491 31.5997 80.4862 32.0677 80.4802 32.5384C80.4774 32.8025 80.4767 33.0667 80.476 33.3308C80.4738 33.4918 80.4716 33.6527 80.4693 33.8189C80.4682 33.9597 80.4671 34.1019 80.466 34.248C80.3891 34.8112 80.1663 35.1679 79.7417 35.5393C79.1478 35.9094 78.539 35.9228 77.8604 35.841C77.4076 35.6761 77.0246 35.4723 76.7613 35.0539C76.6415 34.7455 76.6161 34.5243 76.6148 34.1944C76.6138 34.0807 76.6129 33.9664 76.6119 33.8498C76.6122 33.7261 76.6126 33.6031 76.6129 33.4757C76.6122 33.3445 76.6115 33.2128 76.6108 33.0788C76.609 32.6456 76.6091 32.2112 76.6094 31.7781C76.6089 31.4764 76.6083 31.176 76.6077 30.8743C76.6067 30.2427 76.6067 29.6112 76.6074 28.9836C76.6082 28.1737 76.6059 27.3611 76.6028 26.5566C76.6008 25.9344 76.6007 25.3122 76.6011 24.6927C76.601 24.3937 76.6003 24.096 76.599 23.797C76.5973 23.38 76.5982 22.9629 76.5998 22.5446C76.5983 22.3595 76.5983 22.3595 76.5967 22.1705C76.602 21.5228 76.6313 21.0883 77.0536 20.5614C77.5857 20.08 78.1581 20.0921 78.8407 20.1108C79.3446 20.1779 79.6349 20.3535 80.0044 20.6955C80.2718 21.1192 80.3027 21.4397 80.2893 21.9358C80.2869 22.0554 80.2845 22.1745 80.282 22.2978C80.2788 22.3884 80.2757 22.4789 80.2725 22.5727H80.5413C80.5958 22.4539 80.5958 22.4539 80.6514 22.3327C81.2199 21.2694 82.2774 20.7236 83.3658 20.2945C85.368 19.7273 87.5449 19.9151 89.2246 21.1661L89.225 21.15Z" fill="white"/>
<path d="M202.234 20.0773C202.416 20.0887 202.416 20.0887 202.601 20.1004C204.146 20.2747 205.813 21.0283 206.861 22.1922C207.972 23.7074 208.554 25.464 208.594 27.3279C208.602 27.5692 208.602 27.5692 208.609 27.8146C208.552 28.2491 208.552 28.2491 208.306 28.5669C207.769 28.9691 207.303 28.9356 206.653 28.9356C206.556 28.9356 206.459 28.9357 206.358 28.9357C206.037 28.9356 205.718 28.9345 205.396 28.9335C205.175 28.9332 204.952 28.9331 204.73 28.9329C204.145 28.9324 203.559 28.9311 202.97 28.9296C202.373 28.9282 201.775 28.9276 201.182 28.9269C200.011 28.9255 198.844 28.9232 197.662 28.9204C197.724 29.1779 197.786 29.4353 197.849 29.6928C197.883 29.8362 197.918 29.9797 197.954 30.1272C198.255 31.2214 198.95 31.9643 199.916 32.5543C201.461 33.2462 203.342 32.9793 204.914 32.5448C205.314 32.3853 205.695 32.2096 206.08 32.0205C206.523 31.8154 206.844 31.7403 207.333 31.7403C207.759 31.9133 207.963 32.093 208.258 32.4443C208.467 32.9552 208.43 33.222 208.275 33.7517C207.601 34.9464 206.272 35.3071 205.036 35.6692C202.94 36.2002 200.494 36.1358 198.465 35.3594C198.342 35.3123 198.219 35.2654 198.093 35.2173C197.175 34.8123 196.48 34.1848 195.782 33.4875C195.663 33.3714 195.663 33.3714 195.541 33.2528C194.171 31.8047 193.835 29.686 193.848 27.7685C193.919 25.6365 194.613 23.6788 196.119 22.1233C197.826 20.6081 199.962 19.9376 202.22 20.0851L202.234 20.0773ZM199.412 23.2955L198.984 23.5717C198.052 24.4151 197.8 25.4356 197.665 26.6424H205.325C205.192 25.3176 205.022 24.5908 204.208 23.5717C202.851 22.4963 200.916 22.3126 199.411 23.2874L199.412 23.2955Z" fill="white"/>
<path d="M106.156 21.5523C106.485 21.9492 106.507 22.2522 106.515 22.7618C106.35 23.2405 106.194 23.4966 105.809 23.8265C105.026 24.1282 104.398 23.8033 103.659 23.5073C102.181 22.9267 100.475 22.5633 98.9562 23.219C98.3609 23.565 98.1069 23.9002 97.9269 24.5599C97.9168 25.1339 97.981 25.3792 98.3219 25.8419C99.3607 26.4922 100.526 26.6196 101.722 26.818C103.388 27.101 105.094 27.4496 106.25 28.7892C106.941 29.8445 107.054 30.9614 106.839 32.1951C106.571 33.2651 105.996 34.1662 105.078 34.783C103.533 35.6734 102.162 35.9483 100.389 35.9389C100.158 35.9381 100.158 35.9381 99.921 35.9372C97.9054 35.9105 95.7151 35.6194 94.1698 34.194C93.9427 33.7421 93.9279 33.309 94.0193 32.8263C94.2598 32.4495 94.4251 32.2215 94.8255 32.0217C95.5014 31.9606 95.9999 32.1388 96.5993 32.4079C97.857 32.9295 98.9239 33.1159 100.281 33.1374C100.442 33.141 100.442 33.141 100.606 33.1446C101.485 33.1434 102.205 32.9757 102.944 32.4675C103.243 32.0263 103.309 31.6053 103.288 31.0863C103.207 30.6331 103.207 30.6331 102.885 30.2818C101.855 29.7119 100.668 29.5483 99.5259 29.3432C97.6313 29.0039 95.9785 28.6821 94.7691 27.077C94.1993 26.0472 94.2517 24.5963 94.5151 23.47C95.0244 22.2042 96.0335 21.3379 97.2429 20.7613C99.8767 19.7731 103.854 19.6082 106.152 21.5632L106.156 21.5523Z" fill="white"/>
<path d="M159.234 15.7864C159.644 16.0438 159.862 16.3147 160.034 16.7572C160.077 17.1501 160.077 17.1501 160.089 17.602C160.097 17.8447 160.097 17.8447 160.105 18.0914C160.109 18.259 160.113 18.428 160.118 18.6009C160.125 18.8557 160.125 18.8557 160.133 19.1172C160.146 19.5369 160.158 19.9579 160.168 20.3776C160.345 20.3785 160.345 20.3785 160.527 20.3793C160.969 20.3829 161.411 20.3895 161.853 20.3981C162.044 20.4012 162.235 20.4031 162.426 20.4039C162.701 20.4051 162.976 20.4106 163.251 20.4169C163.416 20.419 163.581 20.4211 163.752 20.4233C164.314 20.5345 164.512 20.7465 164.87 21.1823C165.086 21.7213 165.035 22.1665 164.845 22.7109C164.583 23.0904 164.487 23.1762 164.064 23.3304C163.633 23.3608 163.633 23.3608 163.13 23.3565C163.041 23.3562 162.953 23.3558 162.861 23.3554C162.579 23.3539 162.297 23.3505 162.015 23.3471C161.822 23.3458 161.632 23.3445 161.44 23.3435C160.971 23.3405 160.502 23.3359 160.029 23.3304C160.041 24.3012 160.055 25.2747 160.071 26.2401C160.076 26.57 160.081 26.8999 160.085 27.2297C160.091 27.7057 160.099 28.1804 160.107 28.6511C160.109 28.7972 160.11 28.9434 160.112 29.0949C160.131 30.1167 160.162 31.0795 160.717 31.9511C161.46 32.6282 162.181 32.7569 163.176 32.7288C163.647 32.6962 164.115 32.6412 164.587 32.5732C164.873 32.5701 164.873 32.5701 165.276 32.8387C165.508 33.5347 165.511 34.2735 165.259 34.9708C164.915 35.542 164.555 35.6976 163.922 35.8665C161.987 36.1615 159.998 36.0475 158.305 35.0298C157.107 34.1475 156.585 33.0587 156.276 31.6373C156.211 30.9722 156.213 30.3165 156.224 29.6527C156.225 29.469 156.225 29.2853 156.226 29.1016C156.228 28.6243 156.233 28.1469 156.239 27.6669C156.245 27.1774 156.247 26.6867 156.25 26.1919C156.256 25.2344 156.265 24.2744 156.276 23.3223C156.041 23.3293 156.041 23.3293 155.8 23.3364C155.592 23.3402 155.384 23.3438 155.177 23.3474C155.022 23.3524 155.022 23.3524 154.864 23.3576C154.236 23.3657 153.829 23.3296 153.318 22.9205C152.958 22.3814 152.956 21.9443 153.05 21.3114C153.29 20.9265 153.45 20.7093 153.856 20.5068C154.243 20.4756 154.627 20.4505 155.014 20.4315C155.122 20.4257 155.229 20.4199 155.341 20.4139C155.607 20.3997 155.873 20.3862 156.14 20.3727C156.142 20.2673 156.143 20.1622 156.144 20.0536C156.151 19.5736 156.163 19.0935 156.174 18.6188C156.176 18.4526 156.178 18.2863 156.18 18.116C156.222 16.5605 156.222 16.5605 156.813 15.9571C157.454 15.4985 158.519 15.524 159.231 15.7909L159.234 15.7864Z" fill="white"/>
<path d="M113.009 20.3454C113.508 20.6766 113.711 20.9555 113.899 21.5187C113.914 21.9237 113.921 22.3246 113.923 22.7296C113.923 22.8535 113.924 22.9776 113.925 23.105C113.928 23.5153 113.929 23.9256 113.931 24.3373C113.931 24.4781 113.932 24.6176 113.932 24.7624C113.935 25.5052 113.937 26.2508 113.938 26.9883C113.94 27.7553 113.945 28.5169 113.95 29.2812C113.953 29.8712 113.955 30.4612 113.955 31.0512C113.956 31.3342 113.957 31.6158 113.96 31.8987C113.963 32.2943 113.963 32.6912 113.962 33.0867C113.964 33.2026 113.965 33.3187 113.967 33.4381C113.961 34.2051 113.818 34.8192 113.361 35.4628C112.712 35.8906 112.145 35.9228 111.399 35.8155C110.864 35.6733 110.64 35.4803 110.275 35.0606C110.007 34.3311 109.967 33.6794 109.971 32.9151C109.97 32.7975 109.97 32.6804 109.969 32.5584C109.968 32.1722 109.969 31.7847 109.97 31.3985C109.97 31.129 109.969 30.8581 109.969 30.5886C109.969 30.0241 109.969 29.4582 109.971 28.8991C109.972 28.1763 109.971 27.4509 109.97 26.7268C109.969 26.169 109.969 25.6125 109.97 25.0507C109.97 24.7838 109.97 24.5183 109.969 24.2515C109.968 23.8787 109.969 23.5059 109.971 23.1332C109.97 22.9696 109.97 22.9696 109.969 22.802C109.975 21.9693 110.044 21.2599 110.602 20.6029C111.304 20.0223 112.188 20.0451 113.007 20.3508L113.009 20.3454Z" fill="white"/>
<path d="M71.6221 20.4795C72.1663 20.9033 72.3947 21.3552 72.4821 22.035C72.4975 22.3568 72.4998 22.6773 72.4975 22.9991C72.4982 23.1207 72.4989 23.2418 72.4997 23.3679C72.5014 23.7674 72.5003 24.167 72.4989 24.5666C72.4992 24.8455 72.4996 25.1244 72.5001 25.4034C72.5007 25.9867 72.4998 26.5713 72.4979 27.1599C72.4956 27.9068 72.4969 28.6484 72.4993 29.3993C72.5008 29.9745 72.5003 30.5511 72.4993 31.129C72.499 31.4039 72.4994 31.6802 72.5003 31.955C72.5013 32.3399 72.4998 32.7261 72.4975 33.1109C72.4987 33.2799 72.4987 33.2799 72.5 33.4528C72.4923 34.1662 72.3799 34.665 72.0418 35.3033C71.554 35.7659 71.1979 35.9563 70.5233 36.0073C69.8111 35.9591 69.4013 35.7605 68.9108 35.2443C68.4795 34.5899 68.5279 33.9262 68.5265 33.1659C68.5256 33.0445 68.5248 32.9232 68.5238 32.7985C68.5212 32.3975 68.5196 31.9966 68.5183 31.5957C68.5177 31.4589 68.5172 31.3208 68.5166 31.18C68.5138 30.4532 68.5119 29.7318 68.5106 28.9943C68.5091 28.2447 68.5045 27.4925 68.4992 26.7416C68.4957 26.165 68.4946 25.5871 68.4941 25.0118C68.4934 24.7356 68.4919 24.4594 68.4894 24.1831C68.4861 23.7956 68.4862 23.4094 68.4871 23.0219C68.4854 22.9087 68.4837 22.7953 68.4819 22.6786C68.4886 21.913 68.6459 21.3109 69.088 20.6807C69.8351 20.1255 70.7945 20.0799 71.6277 20.4876L71.6221 20.4795Z" fill="white"/>
<path d="M147.678 42.6046C147.988 42.7052 147.988 42.7052 148.123 42.8393C148.144 43.0484 148.156 43.259 148.165 43.4681C148.174 43.6586 148.174 43.6586 148.182 43.8516C148.187 43.9848 148.193 44.1185 148.198 44.2553C148.204 44.3889 148.21 44.5221 148.216 44.6602C148.23 44.9914 148.244 45.3226 148.257 45.6552L148.577 45.395C149.215 44.8949 149.751 44.9177 150.539 44.9847C151.268 45.2408 151.642 45.6431 152.03 46.3028C152.423 47.2079 152.346 48.2337 152.022 49.1456C151.638 49.8227 151.288 50.2384 150.544 50.4865C149.891 50.5548 149.285 50.603 148.716 50.2263C148.388 49.9501 148.388 49.9501 148.254 49.816L147.851 50.4865C147.536 50.4521 147.222 50.4069 146.91 50.3524C146.742 50.0171 146.756 49.7838 146.752 49.4084C146.75 49.2676 146.748 49.1268 146.746 48.9806C146.745 48.8278 146.744 48.6749 146.743 48.518C146.742 48.2833 146.742 48.2833 146.74 48.0447C146.738 47.7135 146.737 47.3823 146.736 47.0511C146.734 46.5428 146.728 46.0346 146.722 45.5224C146.72 45.2006 146.719 44.8801 146.718 44.5583C146.716 44.4054 146.714 44.2526 146.711 44.0957C146.712 43.9549 146.712 43.8128 146.712 43.6666C146.712 43.542 146.711 43.4172 146.71 43.2898C146.776 42.9733 146.776 42.9733 147.026 42.7266C147.313 42.5711 147.313 42.5711 147.675 42.6045L147.678 42.6046ZM148.526 46.3323C148.043 46.8633 148.055 47.4346 148.074 48.1157C148.156 48.7272 148.428 49.0933 148.903 49.4701C149.355 49.5858 149.689 49.5234 150.138 49.4113C150.64 49.0466 150.822 48.6711 150.945 48.0704C150.964 47.3852 150.921 46.8891 150.525 46.3138C149.814 45.8365 149.2 45.7614 148.523 46.3222L148.526 46.3323Z" fill="white"/>
<path d="M165.685 42.6046C166.012 42.7135 166.012 42.7135 166.281 43.1155C166.324 43.3823 166.324 43.3823 166.337 43.6827C166.342 43.7902 166.347 43.8972 166.353 44.0085C166.357 44.1202 166.361 44.2324 166.365 44.3478C166.37 44.4611 166.376 44.5744 166.381 44.691C166.394 44.9699 166.405 45.2502 166.416 45.5291L166.844 45.2649C167.473 44.9083 167.989 44.8855 168.699 44.9927C169.36 45.1738 169.694 45.5412 170.034 46.1245C170.451 47.0631 170.492 48.0286 170.193 49.0074C169.915 49.6336 169.608 50.1284 168.971 50.4154C168.207 50.6246 167.493 50.6152 166.808 50.2209L166.421 49.9528V49.6846H166.152C166.133 49.7924 166.113 49.9005 166.093 50.0118C166.018 50.355 166.018 50.355 165.884 50.4891C165.556 50.5143 165.556 50.5143 165.212 50.4891C164.864 50.1418 164.908 50.001 164.907 49.5183C164.906 49.3722 164.904 49.2247 164.903 49.0731C164.903 48.9136 164.903 48.7553 164.903 48.5904C164.903 48.4282 164.902 48.2646 164.902 48.0969C164.901 47.7523 164.901 47.4077 164.901 47.0631C164.902 46.5348 164.899 46.0051 164.895 45.4808C164.895 45.1469 164.895 44.8131 164.895 44.4792C164.894 44.3196 164.892 44.1614 164.891 43.9964C164.892 43.8503 164.893 43.7028 164.894 43.5513C164.894 43.4216 164.893 43.2925 164.893 43.1584C164.91 43.0559 164.927 42.9532 164.944 42.8473C165.347 42.5791 165.347 42.5791 165.691 42.6046H165.685ZM166.55 46.3323C166.174 46.9532 166.105 47.5432 166.222 48.2498C166.358 48.7728 166.476 49.1187 166.953 49.4151C167.469 49.5559 167.765 49.6014 168.263 49.3983C168.724 49.0148 168.94 48.7386 169.008 48.1285C169.041 47.1523 169.041 47.1523 168.566 46.3316C167.851 45.8006 167.278 45.8208 166.55 46.3316V46.3323Z" fill="white"/>
<path d="M188.931 42.6045C189.241 42.7134 189.241 42.7134 189.376 42.8472C189.39 43.0765 189.394 43.3058 189.395 43.5351C189.396 43.6812 189.397 43.8287 189.398 43.9803C189.398 44.1398 189.398 44.2994 189.398 44.4643C189.399 44.7084 189.399 44.7084 189.4 44.9578C189.4 45.3024 189.401 45.6484 189.401 45.993C189.401 46.5226 189.403 47.0536 189.406 47.5887C189.406 47.9239 189.407 48.2578 189.407 48.593C189.408 48.7526 189.409 48.9121 189.41 49.0757C189.409 49.2232 189.409 49.3707 189.408 49.5222C189.409 49.6523 189.409 49.7824 189.409 49.9165C189.376 50.2276 189.376 50.2276 189.107 50.4957C188.771 50.5293 188.771 50.5293 188.435 50.4957L188.166 50.2276V49.6912H187.897L187.763 50.0935C187.087 50.5601 186.406 50.6124 185.613 50.4957C184.897 50.1377 184.445 49.6563 184.108 48.9403C183.886 47.944 183.85 46.8351 184.41 45.9367C184.877 45.4325 185.321 45.049 186.023 44.9658C186.172 44.9609 186.172 44.9609 186.322 44.9559C186.42 44.9509 186.517 44.9459 186.618 44.9407C187.121 45.0247 187.469 45.2679 187.901 45.5348L187.912 45.0252C187.919 44.804 187.927 44.5827 187.935 44.3615C187.938 44.1952 187.938 44.1952 187.941 44.0262C187.974 43.2056 187.974 43.2056 188.289 42.7738C188.574 42.5848 188.574 42.5848 188.935 42.6102L188.931 42.6045ZM185.504 46.6004C185.257 47.2239 185.257 47.8166 185.345 48.4777C185.564 48.9215 185.742 49.1709 186.125 49.4753C186.577 49.591 186.911 49.5287 187.36 49.4166C187.86 49.0519 188.041 48.6751 188.166 48.0757C188.166 47.3704 188.089 46.7589 187.629 46.1984C186.843 45.65 186.11 45.9369 185.506 46.6007L185.504 46.6004Z" fill="white"/>
<path d="M207.072 42.6045C207.391 42.6968 207.391 42.6968 207.526 42.8311C207.54 43.0604 207.545 43.2897 207.545 43.519C207.546 43.6652 207.547 43.8127 207.548 43.9642C207.548 44.1238 207.548 44.2833 207.548 44.4483C207.549 44.6923 207.549 44.6923 207.55 44.9417C207.55 45.2863 207.551 45.6323 207.551 45.9769C207.551 46.5065 207.553 47.0375 207.556 47.5726C207.556 47.9078 207.557 48.2417 207.557 48.5769C207.558 48.7365 207.559 48.896 207.56 49.0596C207.559 49.2071 207.559 49.3546 207.558 49.5062C207.559 49.6362 207.559 49.7663 207.559 49.9004C207.526 50.2115 207.526 50.2115 207.257 50.4797C206.929 50.5384 206.929 50.5384 206.585 50.4797C206.342 50.1444 206.342 50.1444 206.182 49.8092L205.871 50.0693C205.248 50.5467 204.655 50.5494 203.896 50.4797C203.201 50.2396 202.833 49.8722 202.418 49.2728C202.017 48.2846 201.981 47.1542 202.402 46.1619C202.755 45.5894 203.262 45.1898 203.893 44.9792C204.667 44.9028 205.237 44.9563 205.909 45.3815L206.178 45.6497C206.179 45.5658 206.181 45.4821 206.183 45.3949C206.193 45.0155 206.206 44.6373 206.219 44.2578C206.223 44.1258 206.226 43.9937 206.229 43.8583C206.233 43.7321 206.238 43.6062 206.243 43.4761C206.247 43.3596 206.25 43.2428 206.254 43.1234C206.35 42.6434 206.606 42.5535 207.068 42.6085L207.072 42.6045ZM203.9 46.3188C203.454 46.9638 203.398 47.5712 203.497 48.3302C203.668 48.8142 203.814 49.061 204.203 49.3949C204.707 49.5893 204.996 49.5504 205.513 49.4032C205.865 49.1203 206.114 48.8977 206.294 48.4807C206.367 47.6493 206.331 47.0593 205.916 46.3218C205.571 46.0416 205.346 45.9343 204.908 45.8686C204.476 45.9334 204.244 46.0496 203.9 46.3218V46.3188Z" fill="white"/>
<path d="M194.575 45.2864C195.1 45.7075 195.338 46.032 195.415 46.7078C195.414 46.8714 195.414 47.035 195.413 47.2026C195.414 47.3341 195.414 47.3341 195.414 47.4681C195.413 47.6518 195.412 47.8368 195.41 48.0205C195.407 48.3035 195.407 48.5851 195.408 48.868C195.402 50.2491 195.402 50.2491 195.096 50.5575C194.768 50.6078 194.768 50.6078 194.424 50.5575C194.181 50.2893 194.181 50.2893 194.021 50.0212L193.701 50.2893C193.126 50.6702 192.536 50.6661 191.874 50.5575C191.357 50.2947 190.921 50.0118 190.664 49.4848C190.557 48.8506 190.565 48.4241 190.933 47.8891C191.921 47.212 193.003 47.3125 194.158 47.3447L194.024 46.272C193.214 46.0132 192.519 46.1339 191.739 46.4061C191.352 46.4228 191.352 46.4228 191.068 46.4061C190.975 46.0963 190.975 46.0963 190.933 45.7356C191.135 45.395 191.357 45.3253 191.723 45.1738C192.617 44.9512 193.739 44.8533 194.572 45.2911L194.575 45.2864ZM192.788 48.1157C192.614 48.1502 192.614 48.1502 192.437 48.1855C192.116 48.2569 192.116 48.2569 191.871 48.5435C191.919 49.1469 191.919 49.1469 192.274 49.6162C192.661 49.7413 192.894 49.7624 193.29 49.6665C193.7 49.4359 193.906 49.2092 194.156 48.811C194.201 48.4476 194.201 48.4476 194.156 48.1405C193.657 48.0145 193.29 48.0098 192.785 48.1153L192.788 48.1157Z" fill="white"/>
<path d="M178.853 45.0182C179.096 45.3534 179.096 45.3534 179.256 45.6886L179.566 45.4285C180.215 44.931 180.883 44.9297 181.676 45.0182C182.142 45.2421 182.398 45.3896 182.636 45.8509C182.775 46.3027 182.786 46.6889 182.787 47.1609C182.788 47.2925 182.788 47.2925 182.788 47.4264C182.788 47.6101 182.788 47.7952 182.787 47.9789C182.785 48.2618 182.787 48.5434 182.788 48.8263C182.788 49.006 182.788 49.1857 182.787 49.364C182.787 49.5263 182.787 49.6899 182.786 49.8575C182.752 50.2464 182.752 50.2464 182.483 50.5145C182.147 50.5481 182.147 50.5481 181.811 50.5145C181.466 50.1699 181.503 50.0238 181.491 49.5451C181.484 49.3345 181.484 49.3345 181.477 49.1187C181.474 48.9712 181.47 48.8237 181.466 48.6708C181.458 48.3812 181.45 48.0915 181.441 47.8019C181.437 47.673 181.434 47.5444 181.431 47.4117C181.406 47.0081 181.346 46.6219 181.274 46.225C181.036 46.2141 180.798 46.2063 180.56 46.1998C180.428 46.1951 180.295 46.1904 180.158 46.1857C179.796 46.1943 179.796 46.1943 179.555 46.4029C179.242 46.8374 179.238 47.2463 179.226 47.7572C179.221 47.8994 179.217 48.0428 179.212 48.189C179.204 48.4907 179.196 48.7911 179.189 49.0928C179.185 49.2349 179.18 49.3784 179.175 49.5245C179.172 49.6554 179.169 49.786 179.165 49.9215C179.124 50.2406 179.124 50.2406 178.856 50.5088C178.378 50.4753 178.378 50.4753 177.915 50.3747C177.709 49.9603 177.757 49.5232 177.754 49.0673C177.753 48.9644 177.753 48.8621 177.752 48.7562C177.751 48.539 177.75 48.3204 177.749 48.1032C177.748 47.7706 177.744 47.4368 177.74 47.1042C177.739 46.8923 177.738 46.6818 177.737 46.47C177.736 46.3702 177.734 46.2702 177.732 46.1683C177.735 45.4804 177.735 45.4804 177.965 45.1505C178.29 44.944 178.481 44.936 178.857 45.011L178.853 45.0182Z" fill="white"/>
<path d="M171.731 45.0182C172.218 45.0685 172.218 45.0685 172.672 45.1523C172.675 45.2496 172.678 45.3467 172.682 45.4473C172.698 45.8911 172.714 46.335 172.731 46.7788C172.736 46.9317 172.741 47.0845 172.747 47.2428C172.755 47.4653 172.755 47.4653 172.764 47.6933C172.769 47.8301 172.773 47.9655 172.779 48.1063C172.807 48.5139 172.867 48.9082 172.941 49.3104C173.153 49.3251 173.367 49.3354 173.579 49.344L173.938 49.3629C174.4 49.2929 174.531 49.1336 174.822 48.7742C174.906 48.4202 174.906 48.4202 174.9 48.0313C174.903 47.8892 174.907 47.7484 174.911 47.6023C174.912 47.4548 174.913 47.3073 174.915 47.1557C174.92 46.8634 174.926 46.5711 174.933 46.2788C174.935 46.1495 174.936 46.02 174.938 45.8872C174.957 45.5547 174.957 45.5547 175.091 45.1524C175.545 45.0686 175.545 45.0686 176.032 45.0183C176.377 45.3629 176.334 45.5963 176.338 46.0669C176.337 46.1732 176.337 46.2801 176.336 46.3887C176.337 46.5523 176.337 46.5523 176.337 46.7199C176.337 46.9506 176.337 47.1812 176.336 47.4118C176.334 47.7658 176.336 48.1198 176.337 48.4738C176.337 48.6978 176.337 48.9217 176.336 49.1456C176.337 49.252 176.337 49.3588 176.338 49.4675C176.331 50.217 176.331 50.217 176.032 50.516C175.704 50.5748 175.704 50.5748 175.36 50.516C175.116 50.1808 175.116 50.1808 174.957 49.8456L174.637 50.1057C173.998 50.6059 173.464 50.5818 172.675 50.516C172.144 50.3431 171.94 50.2304 171.648 49.7558C171.443 49.2556 171.414 48.8989 171.416 48.3612C171.416 48.2736 171.416 48.1855 171.416 48.0957C171.416 47.912 171.417 47.7283 171.419 47.5459C171.423 47.2643 171.422 46.9841 171.421 46.7025C171.427 45.3214 171.427 45.3214 171.733 45.0264L171.731 45.0182Z" fill="white"/>
<path d="M153.053 45.0181C153.506 45.0283 153.506 45.0283 153.994 45.1522C154.236 45.4874 154.236 45.4874 154.409 45.9286C154.473 46.0855 154.536 46.2424 154.602 46.4033C154.665 46.5682 154.728 46.7331 154.792 46.9034C154.858 47.0711 154.925 47.2387 154.992 47.4049C155.156 47.8153 155.315 48.2256 155.472 48.6372C155.512 48.5324 155.551 48.4281 155.593 48.3194C155.743 47.9306 155.896 47.5417 156.052 47.1555C156.152 46.9061 156.247 46.654 156.342 46.4019C156.406 46.2451 156.47 46.0882 156.536 45.9273C156.593 45.7824 156.65 45.6363 156.709 45.4874C156.951 45.1522 156.951 45.1522 157.44 45.0289C157.589 45.0255 157.739 45.0221 157.893 45.0187C158.027 45.1528 158.027 45.1528 158.068 45.4853C158.013 46.1276 157.778 46.6278 157.513 47.2151C157.46 47.334 157.407 47.4524 157.353 47.5758C157.185 47.9553 157.014 48.3334 156.844 48.7115C156.73 48.9663 156.618 49.2197 156.504 49.4745C155.305 52.1697 155.305 52.1697 154.931 52.5318C154.512 52.4815 154.512 52.4815 154.125 52.3977C153.999 52.0544 153.977 51.8989 154.1 51.5489C154.206 51.3277 154.312 51.1077 154.42 50.8865C154.652 50.1074 154.349 49.3981 154.023 48.6874C153.95 48.5225 153.876 48.3575 153.803 48.1926C153.687 47.9365 153.571 47.6804 153.454 47.4256C153.34 47.1762 153.228 46.9268 153.118 46.676C153.05 46.5285 152.983 46.381 152.913 46.2282C152.774 45.7937 152.775 45.5805 152.917 45.1514L153.052 45.0173L153.053 45.0181Z" fill="white"/>
<path d="M70.4126 13.2387C70.5873 13.2336 70.7633 13.2286 70.9434 13.2235C71.5373 13.29 71.8061 13.4327 72.2603 13.8175C72.6446 14.3083 72.7185 14.6757 72.7145 15.2925C72.716 15.4964 72.716 15.4964 72.7176 15.7029C72.6444 16.2419 72.4609 16.6026 72.039 16.9499C71.1871 17.3884 70.319 17.4903 69.3918 17.206C68.9672 17.0156 68.685 16.8225 68.3759 16.4739C68.0978 15.7404 68.0266 15.1356 68.2499 14.3821C68.7982 13.4515 69.3854 13.2611 70.4133 13.2423L70.4126 13.2387Z" fill="white"/>
<path d="M112.069 13.1045L112.585 13.1003C113.247 13.1964 113.644 13.4865 114.13 13.9344C114.474 14.6022 114.507 15.3155 114.281 16.0262C114.051 16.5559 113.729 16.7892 113.214 17.0574C112.459 17.3081 111.709 17.2639 110.956 17.0406C110.466 16.7523 110.087 16.5096 109.856 15.984C109.759 15.3014 109.729 14.6618 110.012 14.0262C110.588 13.2847 111.153 13.097 112.068 13.1037L112.069 13.1045Z" fill="white"/>
<path d="M162.594 45.0182C162.938 45.06 162.938 45.06 163.158 45.2006C163.438 45.6015 163.393 46.0145 163.385 46.4851C163.385 46.634 163.385 46.634 163.385 46.7868C163.384 46.9974 163.382 47.2079 163.379 47.4184C163.375 47.7402 163.374 48.0634 163.373 48.3852C163.372 48.5904 163.37 48.7942 163.369 48.9993C163.368 49.1442 163.368 49.1442 163.367 49.2917C163.361 49.7047 163.339 50.0292 163.207 50.4247C162.753 50.5085 162.753 50.5085 162.266 50.5588C161.921 50.2142 161.964 49.9809 161.96 49.5102C161.961 49.4039 161.961 49.297 161.962 49.1884C161.961 49.0793 161.961 48.9698 161.961 48.8572C161.961 48.6266 161.961 48.3959 161.962 48.1653C161.964 47.8113 161.962 47.4573 161.961 47.1033C161.961 46.8794 161.961 46.6554 161.962 46.4315C161.961 46.3252 161.961 46.2183 161.96 46.1097C161.969 45.1 161.969 45.1 162.594 45.0195L162.594 45.0182Z" fill="white"/>
<path d="M200.353 45.0182C200.681 45.0769 200.681 45.0769 200.95 45.3454C200.976 45.7168 200.987 46.0748 200.985 46.4476C200.986 46.5567 200.986 46.6662 200.986 46.7788C200.986 47.0094 200.986 47.2401 200.985 47.4707C200.983 47.8247 200.985 48.1787 200.986 48.5327C200.986 48.7566 200.986 48.9806 200.985 49.2045C200.986 49.3108 200.986 49.4177 200.987 49.5263C200.981 50.2759 200.981 50.2759 200.681 50.5749C200.353 50.6336 200.353 50.6336 200.009 50.5749C199.591 50.0426 199.555 49.6175 199.552 48.9524C199.551 48.8627 199.551 48.7727 199.551 48.6802C199.55 48.4911 199.551 48.3021 199.553 48.113C199.555 47.8247 199.553 47.5378 199.55 47.2495C199.551 47.0658 199.551 46.8807 199.552 46.697C199.552 46.5307 199.553 46.3645 199.553 46.1928C199.621 45.6149 199.729 45.1228 200.353 45.0168L200.353 45.0182Z" fill="white"/>
<path d="M197.934 48.9068C198.195 49.124 198.195 49.124 198.337 49.4432C198.32 49.8615 198.32 49.8615 198.203 50.2477C197.8 50.5159 197.8 50.5159 197.389 50.4824C196.994 50.3818 196.994 50.3818 196.725 50.1136C196.68 49.6979 196.657 49.4217 196.875 49.057C197.25 48.833 197.506 48.8438 197.934 48.9068Z" fill="white"/>
<path d="M162.459 42.6046C162.731 42.6133 163.002 42.622 163.272 42.6307C163.432 42.9994 163.432 42.9995 163.541 43.4352C163.407 43.7544 163.407 43.7544 163.138 43.9716C162.59 44.04 162.395 44.0137 161.928 43.7034C161.886 43.3012 161.886 43.3012 161.928 42.8989C162.197 42.6307 162.197 42.6307 162.459 42.6039V42.6046Z" fill="white"/>
<path d="M200.219 42.6045C200.689 42.638 200.689 42.638 200.958 42.9062C200.992 43.3085 200.992 43.3085 200.958 43.7107C200.689 43.9789 200.689 43.9789 200.219 44.0124C199.749 43.9789 199.749 43.9789 199.48 43.7107C199.446 43.3085 199.446 43.3085 199.48 42.9062C199.749 42.638 199.749 42.638 200.219 42.6045Z" fill="white"/>
</svg>
