<svg width="142" height="32" viewBox="0 0 142 32" fill="none" xmlns="http://www.w3.org/2000/svg">
<mask id="mask0_37_615" style="mask-type:luminance" maskUnits="userSpaceOnUse" x="0" y="0" width="34" height="32">
<path fill-rule="evenodd" clip-rule="evenodd" d="M0 0H33.3333V32H0V0Z" fill="white"/>
</mask>
<g mask="url(#mask0_37_615)">
<path fill-rule="evenodd" clip-rule="evenodd" d="M19.3218 12.101C18.133 11.4881 17.5949 10.5978 17.7119 9.42941C17.8282 8.26525 18.1966 7.12911 18.8177 6.028C19.4374 4.92548 20.3222 4.02889 21.4734 3.34034C22.624 2.64969 23.8583 2.29876 25.1757 2.28616C26.4938 2.27285 27.5982 2.51731 28.4902 3.01953C29.3843 3.52036 29.8798 4.36161 29.9838 5.53908C30.0878 6.71865 29.8365 7.89751 29.2276 9.07288C28.6202 10.2524 27.6704 11.5448 26.379 12.9464C22.8623 12.9975 20.5107 12.7146 19.3218 12.101ZM26.1309 17.3927C28.5497 14.9432 30.212 12.9792 31.1158 11.5007C32.0203 10.0221 32.5739 8.99079 32.7774 8.40604C32.9817 7.82267 33.0841 7.08374 33.0841 6.18855C32.8792 4.57248 32.4394 3.38422 31.7655 2.62723C31.0894 1.86886 30.2746 1.26743 29.3196 0.819491C28.3654 0.372243 27.1748 0.100006 25.7494 0L23.991 0.0743098C21.9294 0.521558 20.2785 1.31674 19.0438 2.45986C17.8084 3.60368 16.9288 4.64679 16.4086 5.59129C15.8849 6.5351 15.5234 7.5046 15.3199 8.4991C15.1149 9.49429 15.0765 10.4381 15.2046 11.3319C15.3319 12.2292 15.7525 13.023 16.4663 13.7188C17.1779 14.414 18.1343 14.8807 19.3306 15.1182C20.5268 15.353 22.3094 15.4467 24.6784 15.3967C22.4368 17.5843 20.7759 19.1685 19.6942 20.1505C18.6097 21.1318 17.4782 22.0526 16.2948 22.9089C15.1085 23.7666 13.861 24.5063 12.5488 25.1264C11.238 25.7501 9.83679 26.2154 8.34735 26.5258C6.85792 26.837 5.62824 26.78 4.66185 26.3578C3.69333 25.9362 3.208 25.1903 3.208 24.1194C3.208 23.052 3.65419 22.4256 4.54515 22.2374C5.43823 22.0526 5.99828 21.463 6.22671 20.4671C6.15057 19.5483 5.51367 18.915 4.31671 18.5663C2.99167 18.8143 1.99966 19.2671 1.33785 19.9268C0.67462 20.5852 0.229143 21.6978 0 23.2631V24.4188C0.151576 25.5133 0.508811 26.5078 1.07028 27.4016C1.63033 28.2974 2.31064 28.8989 3.11336 29.2107C3.91607 29.5218 4.86395 29.6899 5.95914 29.7142L7.83143 29.676C9.12943 29.4274 10.7156 28.8558 12.5886 27.9613C14.4595 27.0668 16.5794 25.6917 18.9484 23.8416C21.316 21.9908 23.7106 19.8393 26.1309 17.3927Z" fill="#053B5D"/>
</g>
<mask id="mask1_37_615" style="mask-type:luminance" maskUnits="userSpaceOnUse" x="24" y="6" width="118" height="26">
<path fill-rule="evenodd" clip-rule="evenodd" d="M24 6.66667H141.333V32H24V6.66667Z" fill="white"/>
</mask>
<g mask="url(#mask1_37_615)">
<path fill-rule="evenodd" clip-rule="evenodd" d="M131.496 22.5472C131.365 22.9831 130.912 23.4546 130.136 23.9603C129.36 24.468 128.485 24.9506 127.513 25.4102C126.543 25.8698 125.604 26.23 124.698 26.4875C123.792 26.7482 123.13 26.7239 122.716 26.4183C122.303 26.1122 122.224 25.6703 122.485 25.0929C122.742 24.5147 123.352 23.8615 124.309 23.13C125.267 22.3991 126.217 21.8117 127.165 21.3633C128.11 20.9162 128.991 20.6561 129.807 20.5856C130.623 20.5139 131.14 20.7154 131.36 21.1862C131.579 21.657 131.625 22.112 131.496 22.5472ZM108.426 22.2245C108.306 22.9497 108.014 23.6578 107.553 24.3481C107.093 25.037 106.354 25.7259 105.335 26.4154C104.317 27.1036 103.25 27.7418 102.136 28.3301C101.02 28.9163 100.345 29.0889 100.117 28.8457C99.8842 28.604 100.08 28.0363 100.697 27.1428C101.316 26.25 101.971 25.4192 102.663 24.6548C103.353 23.8875 104.111 23.1287 104.934 22.3757C105.76 21.6233 106.451 21.0999 107.009 20.8061C107.566 20.5138 107.972 20.4945 108.226 20.7491C108.481 21.0037 108.548 21.4964 108.426 22.2245ZM39.7219 22.6144C39.4499 22.8989 39.1561 22.934 38.8425 22.7165C38.5277 22.5009 38.413 22.2324 38.4961 21.9136C38.5798 21.594 38.8162 21.404 39.2035 21.3466C39.5909 21.2898 39.8419 21.4161 39.9572 21.7241C40.073 22.0322 39.9934 22.3287 39.7219 22.6144ZM139.842 25.9895C139.354 26.0195 138.808 26.2396 138.209 26.6463C137.608 27.053 136.896 27.3646 136.077 27.5826C135.254 27.802 134.565 27.8369 134.001 27.686C133.438 27.5386 133.094 27.2989 132.967 26.9747C132.842 26.6498 132.931 26.3556 133.23 26.0929C133.53 25.8309 133.938 25.3669 134.45 24.7038C134.966 24.0407 135.208 23.4049 135.184 22.7921C135.159 22.1793 134.89 21.9354 134.376 22.0605C133.862 22.1849 133.626 21.9732 133.662 21.4226C133.698 20.8727 133.636 20.3801 133.473 19.9399C133.311 19.5032 132.974 19.1161 132.46 18.7779C131.948 18.4404 130.951 18.2475 129.476 18.1951C128.348 18.3223 127.465 18.5228 126.828 18.7967C126.188 19.072 125.305 19.5157 124.177 20.1292C123.051 20.742 121.83 21.6818 120.516 22.9514C119.378 24.0477 118.725 24.9183 118.552 25.5647C118.413 25.5765 118.24 25.645 118.035 25.7729C117.523 26.0992 116.773 26.3486 115.785 26.5261C114.794 26.6987 114.03 27.0054 113.492 27.4429C112.953 27.881 112.466 28.0501 112.029 27.9494C111.589 27.8481 111.369 27.6301 111.369 27.2919C111.369 26.9551 111.576 26.5618 111.989 26.1111C112.404 25.6611 112.783 25.1231 113.136 24.4991C113.486 23.8723 114.087 23.0904 114.938 22.1541C115.79 21.2157 116.591 20.3409 117.343 19.5276C118.093 18.715 118.788 18.1665 119.428 17.8779C120.064 17.5907 120.696 17.2351 121.324 16.8095C121.948 16.3826 122.714 15.702 123.615 14.7643C124.515 13.826 125.36 12.9001 126.15 11.9869C126.939 11.0757 127.457 10.2058 127.71 9.38341C127.583 8.88032 127.428 8.53655 127.24 8.34998C127.052 8.16202 126.669 8.00621 126.094 7.88253C125.692 7.93144 125.086 8.18089 124.272 8.63157C123.459 9.08156 122.587 9.74535 121.662 10.6188C120.735 11.495 119.845 12.3698 118.995 13.2453C118.143 14.1201 117.462 14.8272 116.947 15.3653C116.434 15.9026 115.834 16.6845 115.144 17.7088C114.457 18.7345 113.955 19.4962 113.641 19.9986C113.329 20.4975 112.953 20.953 112.516 21.3667C112.078 21.7796 111.814 21.7594 111.726 21.3094C111.637 20.8601 111.576 20.4353 111.537 20.0342C111.502 19.6345 111.296 19.2467 110.921 18.8722C110.543 18.4963 110.098 18.2776 109.585 18.2168C109.071 18.1518 108.409 18.2217 107.595 18.4222C106.78 18.6214 105.955 18.9463 105.115 19.3969C104.278 19.8476 103.52 20.371 102.844 20.9733C102.167 21.5721 101.483 22.1919 100.797 22.8291C100.108 23.4664 99.4379 24.1791 98.7879 24.9658C98.345 25.5004 97.9294 26.0056 97.5348 26.4891C96.8281 26.7176 96.0389 26.9551 95.1622 27.1983C92.9204 27.8237 91.7183 27.8747 91.5553 27.3499C91.3923 26.8245 91.5497 26.023 92.0248 24.9484C92.4999 23.8723 92.4999 23.0534 92.0248 22.4916C91.5497 21.9299 90.9809 21.7223 90.3162 21.8726C89.6508 22.0235 88.7776 22.4155 87.6868 23.0534C86.5988 23.6914 84.6257 24.8485 81.771 26.5261C83.5755 24.6486 84.6187 23.3168 84.9077 22.528C85.1959 21.7419 85.2582 21.0033 85.0952 20.3179C84.9336 19.6289 84.4382 19.1342 83.6119 18.8345C82.6855 18.8848 81.8277 19.0909 81.0391 19.4528C80.2513 19.8155 79.1598 20.3528 77.7695 21.0655C76.3807 21.7796 75.173 22.5797 74.1459 23.4664C73.1174 24.3545 72.3568 24.9106 71.8545 25.1356C71.5753 25.2614 71.357 25.5542 71.1919 26.0014C70.5635 26.174 70.0199 26.3668 69.5637 26.5799C68.7871 26.9433 67.5416 27.2989 65.826 27.6483C64.1097 27.9997 63.1343 27.9417 62.8958 27.4799C62.6593 27.0173 62.5788 26.6246 62.6523 26.2997C62.7271 25.9727 63.0161 25.5856 63.5171 25.1356C64.0159 24.6864 64.512 24.235 64.9997 23.785C65.4881 23.3357 65.8015 22.6789 65.9394 21.8153C66.0772 20.953 66.0142 20.3221 65.7512 19.9224C65.4881 19.5227 65.1424 19.42 64.717 19.624C64.2923 19.8232 63.9159 20.2096 63.5912 20.7853C63.2652 21.3597 62.7649 21.8278 62.0883 22.1919C61.4124 22.5538 60.5057 22.9787 59.3659 23.4664C58.2254 23.9541 56.9618 24.5683 55.5715 25.3047C54.182 26.0433 53.0359 26.5736 52.1361 26.8992C51.2342 27.2235 50.5016 27.387 49.9384 27.387C49.3752 27.387 49.0687 27.206 49.0176 26.8426C48.9679 26.48 49.1918 26.0866 49.6942 25.6611C50.1952 25.237 50.7626 24.8044 51.4014 24.3663C52.0416 23.9296 52.8106 23.4223 53.7118 22.848C54.6137 22.2729 55.2714 21.5588 55.6835 20.7092C56.0984 19.8602 56.16 19.2467 55.8724 18.8722C55.5855 18.4963 55.3406 18.2608 55.1419 18.1595C54.9397 18.0589 54.6137 17.9715 54.1617 17.8975C53.7628 17.9967 53.3067 18.2343 52.7917 18.6081C52.2795 18.9854 51.5085 19.6667 50.4828 20.654C49.4556 21.6413 48.0038 23.0241 46.1259 24.7989C45.9495 24.9679 45.7851 25.1328 45.6291 25.2915C45.1708 25.3257 44.7125 25.3669 44.2479 25.4172C43.6714 25.4794 43.0941 25.4249 42.5197 25.2481C41.9425 25.0735 41.5297 24.8415 41.2799 24.5536C41.0294 24.2671 41.0686 24.0044 41.3932 23.7668C41.7186 23.5293 41.9614 23.1163 42.1244 22.528C42.2881 21.9424 42.3252 21.4037 42.2377 20.9167C42.1489 20.4283 41.8606 20.0461 41.3743 19.7715C40.8853 19.4962 40.392 19.3229 39.8896 19.2467C39.39 19.172 38.8261 19.253 38.1992 19.4906C37.573 19.7288 36.9859 20.1034 36.4353 20.6162C35.8825 21.1277 35.5831 21.6608 35.5327 22.2093C35.4823 22.7606 35.702 23.1988 36.1911 23.523C36.6774 23.8493 36.6158 24.1986 36.0015 24.5725C35.3865 24.9484 34.7253 25.2991 34.0116 25.6234C33.2965 25.949 32.5017 26.3179 31.6257 26.7308C30.7504 27.1424 29.9423 27.4051 29.2048 27.5183C28.4645 27.6301 27.8894 27.5386 27.4773 27.236C27.0624 26.9363 26.8805 26.5478 26.9316 26.074C26.9819 25.5996 27.802 24.6738 29.3909 23.2973C30.9827 21.9222 32.2904 20.9034 33.3168 20.2396C34.3433 19.5786 35.4089 18.8289 36.5095 17.9911C37.6101 17.1526 38.6316 16.4022 39.5692 15.7398C40.5095 15.0774 41.4051 14.4206 42.2566 13.7701C43.1081 13.1202 43.9471 12.3328 44.7727 11.4062C45.599 10.4811 46.137 9.65731 46.3875 8.93203C46.263 8.20604 45.8131 7.76934 45.0364 7.61911C44.3088 7.66942 43.4398 7.96778 42.4252 8.51838C41.4114 9.06898 40.4291 9.81313 39.4768 10.7508C38.5259 11.6892 37.3981 12.9462 36.0973 14.5205C34.7945 16.0954 33.4477 17.3287 32.0595 18.2168C30.6692 19.1042 29.1971 20.2725 27.6445 21.7223C26.0912 23.1736 25.0788 24.2552 24.6037 24.9658C24.1265 25.68 23.8768 26.5121 23.8516 27.4624C23.9523 28.8613 24.8395 29.7864 26.5187 30.2364L28.0587 30.2008C29.2853 29.9499 30.4425 29.6306 31.5326 29.2428C32.622 28.8564 33.7058 28.4057 34.7813 27.8942C35.8581 27.38 36.6347 26.9502 37.1119 26.5974C37.5863 26.2494 38.0313 25.986 38.4441 25.812C38.8569 25.6366 39.29 25.8309 39.7392 26.3927C40.1912 26.9551 40.7985 27.3499 41.5625 27.5756C42.3189 27.7992 43.1025 27.8614 43.91 27.7629C43.8841 27.8691 43.8715 27.9676 43.8715 28.0605C43.8715 28.0864 43.8841 28.0997 43.91 28.0997C43.9338 28.8501 44.3354 29.3867 45.1113 29.7123C45.6613 29.938 46.3623 30.0505 47.2139 30.0505C47.5406 30.0505 47.8785 30.0379 48.2277 30.0128C49.5305 29.8877 50.7703 29.5803 51.9458 29.0947C53.1254 28.6055 54.3058 28.0997 55.4974 27.5756C56.6854 27.0481 58.0939 26.3368 59.7227 25.4347C58.6963 26.8629 58.2254 27.8537 58.315 28.4169C58.4017 28.9808 58.7201 29.4189 59.2714 29.7312C59.8221 30.0428 60.7736 30.2008 62.1261 30.2008C63.4534 30.2008 65.0508 29.9751 66.9133 29.5251C68.7822 29.0758 70.2529 28.5811 71.3297 28.0438C72.1336 27.6427 72.6983 27.236 73.0271 26.828L73.0376 26.8245C73.5519 26.5478 74.6028 25.8595 76.1932 24.7597C77.7835 23.6606 79.0353 22.9912 79.9504 22.7544C80.8649 22.5175 81.2455 22.7222 81.0958 23.3734C80.9447 24.0233 80.5382 24.6612 79.8735 25.2873C79.2109 25.9119 78.5224 26.5121 77.8073 27.0865C77.0958 27.6623 76.7627 28.2869 76.8131 28.9626C76.8628 29.6383 77.1083 30.1064 77.5456 30.3684C77.9843 30.6312 78.5903 30.7618 79.3683 30.7618C79.9434 30.5124 80.8055 30.0743 81.9592 29.4503C83.1109 28.8256 84.4571 27.9627 85.9971 26.8629C87.5385 25.7624 88.1941 25.5856 87.9681 26.3368C87.7449 27.0865 87.782 27.7943 88.0821 28.456C88.383 29.1205 89.0946 29.6061 90.2231 29.9199C91.3496 30.2315 93.0568 30.0184 95.3504 29.2812C95.5757 29.2099 95.7905 29.1373 95.9955 29.0681C95.9591 29.2065 95.9227 29.3441 95.8926 29.488C95.8926 29.9876 96.0305 30.4628 96.3068 30.9121C96.7329 31.5381 97.385 31.9022 98.2604 32C99.4876 31.9504 100.302 31.8141 100.702 31.5877C101.102 31.362 101.635 31.0553 102.299 30.6689C102.962 30.2818 103.6 29.9255 104.216 29.5984C104.828 29.2742 105.48 28.8934 106.168 28.456C106.857 28.0179 107.476 27.5861 108.027 27.162C108.152 27.9627 108.276 28.6055 108.402 29.0947C108.527 29.5803 108.947 29.8947 109.661 30.0303C110.374 30.1686 111.193 30.1309 112.121 29.9199C113.047 29.706 113.768 29.5006 114.281 29.2994C114.794 29.1002 115.377 28.9186 116.027 28.7558C116.677 28.593 117.385 28.3121 118.152 27.9124C118.361 27.802 118.537 27.6979 118.684 27.5966C118.852 28.2981 119.131 28.8256 119.531 29.1687C120.213 29.7564 120.873 30.0505 121.511 30.0505C122.439 30.0505 123.282 29.938 124.047 29.7123C124.812 29.488 125.599 29.1492 126.413 28.7006C127.226 28.2499 128.149 27.8858 129.174 27.6105C129.574 28.3372 130.189 28.9249 131.014 29.3742C131.767 29.7997 132.842 30.0128 134.244 30.0128C134.371 30.0128 134.734 30.0002 135.334 29.9751C135.935 29.9499 136.727 29.7906 137.71 29.4964C138.692 29.2016 139.45 28.8201 139.982 28.3533C140.513 27.8831 140.786 27.28 140.8 26.5436C140.65 26.1432 140.331 25.9594 139.842 25.9895Z" fill="#053B5D"/>
</g>
</svg>
