<svg width="215" height="59" viewBox="0 0 215 59" fill="none" xmlns="http://www.w3.org/2000/svg">
<path d="M53.0781 7.24087C57.3916 8.07089 61.5572 9.50701 64.9569 12.3363C65.1477 12.4932 65.1477 12.4932 65.3412 12.6528C67.8137 14.7848 69.8428 17.9896 70.0981 21.3151C70.2539 25.4451 69.1454 28.6096 66.4028 31.7339C63.1643 35.1801 58.3671 36.3735 53.9596 37.5937C50.4256 38.472 50.4256 38.472 47.6306 40.6376C47.0528 41.7653 46.8001 43.0378 46.4991 44.258C46.1928 45.4943 45.877 46.6851 45.0613 47.6907C44.3048 48.0514 43.5698 47.9737 42.7635 47.7614C41.0704 47.1647 39.7804 46.1255 38.4904 44.9187C38.3117 44.7645 38.1329 44.6103 37.9529 44.4574C36.421 43.1205 36.421 43.1205 35.8432 42.312C35.0262 41.3867 34.0694 41.0341 32.8869 40.7833C28.2644 39.6677 23.6151 37.3774 20.9948 33.2608C20.1778 31.9065 19.6376 30.5119 19.2882 28.9699C19.2553 28.8278 19.2224 28.6856 19.1885 28.5381C18.4172 24.4484 19.4532 20.3988 21.7282 16.9795C24.7516 12.7288 29.1054 10.0738 33.9832 8.41108C34.074 8.38011 34.1646 8.34927 34.2586 8.31735C35.1213 8.0371 36.0055 7.84401 36.8924 7.64824C36.9187 7.77858 36.9452 7.90838 36.9723 8.04381C37.0718 8.53458 37.1712 9.02535 37.272 9.51881C37.315 9.72933 37.3579 9.94119 37.4006 10.1517C37.6411 11.3411 37.8911 12.5251 38.2364 13.6917C38.915 13.6339 39.5936 13.5728 40.2655 13.4933C40.3634 13.4819 40.4617 13.4706 40.5624 13.4589C40.768 13.4348 40.9736 13.4101 41.1792 13.3846C41.7073 13.3226 42.222 13.2827 42.7514 13.289C43.8116 13.3227 43.8116 13.3227 44.7536 12.8962C45.0277 12.5489 45.2562 12.1895 45.49 11.814C45.6929 11.578 45.8998 11.3461 46.1108 11.1181C46.4534 10.744 46.788 10.3685 47.1105 9.97834C47.4707 9.55595 47.8684 9.19927 48.2917 8.84125C48.7002 8.49395 49.0979 8.13459 49.497 7.77791C49.5935 7.6941 49.6905 7.61029 49.79 7.52447L50.1138 7.22545C50.9322 6.66897 52.1698 7.086 53.0835 7.25482L53.0781 7.24087ZM39.6809 15.4875C39.5331 15.504 39.3853 15.5206 39.2335 15.5376C38.4917 15.6313 38.4917 15.6313 37.8911 16.0324C37.7392 16.3167 37.6452 16.5875 37.5551 16.896C37.517 17.0058 37.4789 17.1159 37.4396 17.2285C37.3139 17.6013 37.2017 17.9754 37.0929 18.3535C37.0324 18.5627 37.0324 18.5627 36.9707 18.7772C35.9965 22.2636 35.506 25.8841 35.3985 29.5045C35.3956 29.594 35.3927 29.6829 35.3896 29.7754C35.3106 32.4974 35.5388 35.2597 35.9271 37.9549C35.9484 38.1051 35.9695 38.2553 35.9914 38.4108C36.209 39.8188 36.7129 40.5429 37.7248 41.5352C37.8327 41.6416 37.9411 41.7484 38.0513 41.8583C40.1341 43.977 40.1341 43.977 42.7679 45.1435C43.2584 45.0571 43.4949 44.9987 43.8684 44.6662C43.9994 44.4302 43.9994 44.4302 44.1143 44.1513C44.1607 44.0433 44.207 43.9354 44.2554 43.8241C44.6008 42.99 44.9327 42.148 45.2632 41.3032C45.3201 41.1597 45.377 41.0162 45.4352 40.8687C45.4891 40.732 45.543 40.5965 45.5992 40.4557C45.7497 40.099 45.7497 40.099 46.0023 39.6686C46.4175 38.6428 45.8397 37.4427 45.5239 36.4504C44.5618 33.3127 43.992 30.0945 43.6024 26.8227C43.5864 26.6889 43.5705 26.5545 43.5541 26.4164C43.323 24.3514 43.3096 22.2998 43.3082 20.2214C43.3081 20.0915 43.3079 19.9613 43.3078 19.8272C43.308 18.312 43.3397 16.7967 43.4677 15.2815C42.1857 15.2221 40.9549 15.3102 39.6783 15.4826L39.6809 15.4875Z" fill="white"/>
<path d="M166.356 20.3818C167.07 20.9544 167.469 21.5618 167.834 22.3932C167.925 22.2863 168.017 22.18 168.11 22.07C169.316 20.6889 170.515 19.7636 172.396 19.5759C173.78 19.4892 175.151 19.6648 176.293 20.5145C177.731 21.7871 178.013 23.3707 178.174 25.2077C178.21 25.8862 178.215 26.562 178.215 27.2459C178.215 27.4323 178.216 27.62 178.217 27.8064C178.218 28.1939 178.218 28.5815 178.217 28.969C178.216 29.4624 178.218 29.9572 178.222 30.4574C178.224 30.8422 178.224 31.2257 178.223 31.6106C178.223 31.8801 178.225 32.1496 178.227 32.4205C178.222 33.3296 178.19 34.0564 177.772 34.8743C177.215 35.3758 176.648 35.4912 175.904 35.4536C175.338 35.3682 174.947 35.16 174.565 34.7403C174.259 34.224 174.254 33.7963 174.25 33.2116C174.249 33.1247 174.248 33.0373 174.247 32.9488C174.246 32.7597 174.245 32.572 174.244 32.3829C174.242 32.0839 174.24 31.7835 174.237 31.4845C174.229 30.633 174.221 29.7816 174.217 28.9234C174.214 28.4018 174.209 27.8815 174.203 27.3545C174.201 27.1574 174.2 26.959 174.2 26.7618C174.253 24.965 174.253 24.965 173.539 23.3827C172.796 22.7431 172.208 22.7552 171.254 22.7659C170.486 22.824 170.026 23.0301 169.467 23.5557C168.42 24.776 168.428 26.4119 168.432 27.9405C168.431 28.1202 168.43 28.2999 168.428 28.4795C168.422 29.1379 168.421 29.7963 168.419 30.4507C168.418 30.9213 168.416 31.3907 168.412 31.8586C168.409 32.21 168.408 32.5599 168.408 32.9113C168.407 33.0695 168.406 33.2277 168.404 33.3913C168.404 33.5307 168.404 33.6689 168.403 33.8123C168.329 34.3728 168.104 34.7282 167.681 35.0983C167.127 35.4429 166.568 35.4657 165.934 35.4C165.298 35.168 164.965 34.8864 164.59 34.3273C164.522 33.9263 164.522 33.9263 164.521 33.4744C164.519 33.3041 164.517 33.1352 164.515 32.9609C164.516 32.7758 164.517 32.5921 164.517 32.4071C164.516 32.2167 164.515 32.0249 164.513 31.8345C164.508 31.3317 164.507 30.8302 164.506 30.3327C164.505 29.5308 164.5 28.7236 164.494 27.9325C164.492 27.6549 164.492 27.3773 164.493 27.0997C164.493 25.142 164.493 25.142 163.783 23.3452C163.11 22.7364 162.413 22.7632 161.539 22.7713C160.705 22.8413 160.226 23.1387 159.644 23.722C159.01 24.6445 158.798 25.492 158.794 26.5915C158.792 26.841 158.792 26.841 158.791 27.0957C158.791 27.184 158.791 27.2727 158.79 27.3626C158.789 27.6401 158.787 27.919 158.785 28.1966C158.778 28.9864 158.771 29.7789 158.769 30.57C158.768 31.0541 158.764 31.5382 158.758 32.0182C158.757 32.2019 158.756 32.3856 158.756 32.5693C158.758 34.3527 158.758 34.3527 158.141 34.9964C157.5 35.4415 156.883 35.5126 156.125 35.3986C155.743 35.2818 155.479 35.1305 155.184 34.8623C154.81 34.0631 154.722 33.4007 154.729 32.5291C154.728 32.4075 154.728 32.2864 154.727 32.1603C154.725 31.7621 154.726 31.3625 154.728 30.9642C154.727 30.6853 154.727 30.4064 154.726 30.1275C154.726 29.5442 154.727 28.9609 154.729 28.3843C154.731 27.6388 154.73 26.8959 154.727 26.145C154.726 25.5698 154.726 24.9945 154.727 24.4153C154.727 24.1404 154.727 23.8655 154.726 23.5906C154.725 23.2057 154.727 22.8209 154.729 22.4361C154.728 22.3233 154.727 22.2108 154.726 22.0941C154.735 21.2896 154.868 20.646 155.386 20.0023C155.969 19.5665 156.784 19.6456 157.469 19.718C158.027 19.9916 158.32 20.2169 158.544 20.7908C158.57 21.1367 158.57 21.1367 158.561 21.4947C158.558 21.6144 158.556 21.7334 158.554 21.8568C158.55 21.9473 158.547 22.0378 158.544 22.1317H158.813C158.846 22.0323 158.879 21.9332 158.913 21.83C159.305 20.9718 160.235 20.3282 161.089 19.9527C162.783 19.3547 164.812 19.3721 166.343 20.3898L166.356 20.3818Z" fill="white"/>
<path d="M83.1781 19.8455C84.0959 20.8056 84.4331 22.42 84.8712 23.6537C84.9329 23.824 84.9944 23.9943 85.0566 24.1646C85.2165 24.6084 85.3765 25.0509 85.5364 25.4947C85.793 26.2081 86.051 26.9161 86.309 27.6268C86.3984 27.8735 86.4877 28.1216 86.5764 28.3683C86.6307 28.5185 86.685 28.6687 86.7404 28.8242C86.7879 28.956 86.8354 29.0884 86.8841 29.2238C87.0127 29.5711 87.1475 29.9157 87.2873 30.259C87.5211 29.9104 87.6501 29.6408 87.7912 29.252C87.8361 29.1295 87.8811 29.0066 87.9269 28.8805C87.975 28.7478 88.0232 28.615 88.0734 28.4783C88.1242 28.3401 88.1748 28.2007 88.2265 28.0586C88.3891 27.6134 88.5517 27.1669 88.7143 26.7217C89.0812 25.7146 89.4507 24.7103 89.8216 23.7046C89.9721 23.293 90.1212 22.88 90.269 22.4683C90.362 22.2149 90.4558 21.9601 90.5485 21.7067C90.5893 21.5912 90.6301 21.476 90.6722 21.3567C90.945 20.6219 91.254 20.0346 91.9904 19.6671C92.5924 19.6119 93.1501 19.5993 93.7238 19.8093C94.5046 20.52 94.7894 21.6061 95.1348 22.585C95.1888 22.7365 95.2428 22.888 95.2987 23.0436C95.4707 23.5263 95.6414 24.009 95.812 24.4917C96.0364 25.1246 96.2622 25.7576 96.4866 26.3958C96.5405 26.5474 96.5942 26.6989 96.6492 26.8544C97.1544 28.7451 97.1544 28.7451 98.0467 30.4078C98.0819 30.3095 98.1172 30.2107 98.1535 30.1101C98.4894 29.1755 98.8254 28.2463 99.1613 27.3076C99.3347 26.8276 99.5067 26.3476 99.6787 25.8729C99.8453 25.4076 100.013 24.9423 100.18 24.4783C100.243 24.3027 100.306 24.127 100.369 23.9514C100.699 23.0301 101.041 22.1143 101.417 21.2159C101.511 20.9906 101.511 20.9906 101.606 20.7613C101.893 20.2049 102.15 19.8964 102.749 19.6966C103.385 19.6311 103.918 19.6094 104.496 19.8978C104.86 20.3524 105.027 20.7291 105.034 21.3057C104.712 22.7673 104.071 24.1753 103.529 25.5698C103.386 25.9319 103.244 26.2939 103.1 26.656C103.001 26.9054 102.902 27.1561 102.804 27.4055C102.449 28.3053 102.1 29.2024 101.752 30.1142C101.607 30.4896 101.462 30.8637 101.317 31.2392C101.224 31.4792 101.131 31.7206 101.039 31.9619C100.91 32.2985 100.779 32.6351 100.649 32.9703C100.611 33.069 100.574 33.1674 100.535 33.2693C100.181 34.1785 99.8125 34.8918 98.8826 35.3075C98.2793 35.4966 97.7082 35.5221 97.1089 35.3028C96.1588 34.8067 95.8001 34.049 95.4426 33.1037C95.4019 32.9971 95.3611 32.8905 95.3191 32.7805C95.1874 32.4359 95.0571 32.09 94.9281 31.744C94.8382 31.5067 94.748 31.2707 94.658 31.0333C94.4793 30.564 94.3019 30.0934 94.1245 29.6254C93.9109 29.0568 93.6945 28.4883 93.4769 27.9224C93.3669 27.6328 93.2565 27.3445 93.1476 27.0549C93.0729 26.8591 93.0729 26.8591 92.9971 26.6579C92.9529 26.5404 92.9087 26.4233 92.8632 26.3013C92.8253 26.2011 92.7875 26.1015 92.7485 25.9982C92.6695 25.7555 92.6695 25.7555 92.6695 25.4873H92.4008C92.3842 25.6036 92.3677 25.7193 92.3507 25.84C92.2681 26.2825 92.1477 26.6727 91.9919 27.0951C91.9353 27.2506 91.8787 27.4062 91.8199 27.5657C91.7585 27.732 91.6971 27.8983 91.6331 28.0686C91.569 28.2429 91.5048 28.4159 91.4409 28.5902C91.3066 28.9536 91.1708 29.3183 91.0365 29.6817C90.8645 30.1457 90.6938 30.6096 90.5245 31.0762C90.3929 31.4356 90.2598 31.795 90.1254 32.153C90.0315 32.4064 89.94 32.6599 89.8472 32.9133C89.4764 33.8962 89.1203 34.7637 88.1944 35.3403C87.3412 35.5187 86.5685 35.5187 85.8026 35.0708C85.0742 34.5277 84.7356 33.5422 84.4185 32.7108C84.3582 32.5553 84.3582 32.5553 84.2965 32.3957C84.1644 32.0538 84.0345 31.7118 83.9041 31.3699C83.763 31.0052 83.6233 30.6391 83.4822 30.2744C83.3834 30.0183 83.2846 29.7622 83.1865 29.506C82.813 28.5379 82.4314 27.5751 82.047 26.6097C81.8804 26.1927 81.7151 25.7743 81.5485 25.3573C81.4407 25.0877 81.3322 24.8169 81.2233 24.5474C81.0701 24.1679 80.9196 23.7884 80.7691 23.4076C80.7237 23.2963 80.6783 23.185 80.6321 23.071C80.2975 22.2182 80.022 21.3681 80.3203 20.4697C81.0097 19.5069 82.121 19.4935 83.1691 19.8823L83.1781 19.8455Z" fill="white"/>
<path d="M141.094 13.141C141.509 13.4748 141.731 13.8409 141.9 14.3478C141.916 14.7286 141.925 15.1081 141.927 15.4889C141.929 15.6054 141.93 15.7222 141.932 15.8415C141.936 16.2264 141.939 16.6126 141.942 16.9974C141.945 17.2643 141.948 17.5311 141.951 17.7979C141.958 18.5006 141.965 19.2059 141.971 19.9032C141.978 20.6205 141.986 21.3379 141.993 22.0486C142.008 23.4566 142.021 24.8645 142.034 26.2725C142.182 26.1263 142.33 25.9802 142.478 25.834C142.56 25.7526 142.643 25.6718 142.728 25.5873C142.964 25.3459 143.185 25.0965 143.404 24.839C143.822 24.355 144.266 23.9044 144.722 23.4579C145.167 23.0194 145.602 22.5836 146.006 22.1036C146.393 21.653 146.799 21.2213 147.216 20.7962C147.335 20.6736 147.455 20.5508 147.577 20.4248C148.307 19.7838 148.921 19.6135 149.875 19.643C150.46 19.7338 150.663 19.9085 151.035 20.3685C151.199 20.8954 151.209 21.1864 151.035 21.7094C150.751 22.1331 150.445 22.4536 150.078 22.8035C149.833 23.0436 149.612 23.2916 149.39 23.5531C148.996 24.0104 148.577 24.4368 148.147 24.8605C147.628 25.3727 147.133 25.893 146.655 26.4428C146.466 26.6613 146.267 26.8652 146.059 27.0676C146.244 27.4806 146.459 27.773 146.772 28.0988C146.861 28.1917 146.95 28.2852 147.041 28.3804C147.136 28.4783 147.231 28.5762 147.327 28.6767C147.524 28.8819 147.72 29.0884 147.916 29.2949C148.012 29.3956 148.108 29.496 148.208 29.5993C148.681 30.0968 149.143 30.6023 149.605 31.1145C149.859 31.3921 150.114 31.6696 150.371 31.9459C150.439 32.0198 150.508 32.0934 150.578 32.1698C150.709 32.3119 150.841 32.4527 150.973 32.5949C151.473 33.1366 151.617 33.4222 151.607 34.1771C151.546 34.6103 151.342 34.8261 151.031 35.1211C150.648 35.3491 150.359 35.4282 149.914 35.4309C149.769 35.4343 149.769 35.4343 149.621 35.4377C148.78 35.3164 148.224 34.9335 147.632 34.3395C147.57 34.2771 147.508 34.2148 147.444 34.1504C147.248 33.952 147.055 33.7535 146.86 33.5537C146.73 33.4224 146.599 33.2909 146.469 33.1595C145.847 32.5306 145.245 31.8897 144.668 31.2152C144.243 30.7378 143.787 30.2926 143.332 29.8475C143.238 29.7533 143.143 29.6597 143.045 29.5618C142.87 29.3889 142.694 29.2145 142.519 29.0416C142.308 28.8324 142.097 28.6232 141.888 28.414C141.89 28.5763 141.892 28.7372 141.894 28.9035C141.902 29.5055 141.906 30.1089 141.91 30.7137C141.912 30.9738 141.915 31.234 141.918 31.4941C141.923 31.8695 141.925 32.2437 141.927 32.6191C141.929 32.7346 141.931 32.8497 141.934 32.9691C141.934 33.6999 141.831 34.2041 141.485 34.8464C140.928 35.368 140.376 35.4216 139.644 35.4122C139.066 35.357 138.672 35.1373 138.287 34.7123C137.991 34.2161 137.975 33.8112 137.973 33.2507C137.973 33.0844 137.972 32.9181 137.971 32.7465C137.97 32.5615 137.97 32.3777 137.969 32.1927C137.969 31.9983 137.968 31.8052 137.967 31.6107C137.964 30.9738 137.963 30.3355 137.961 29.6932C137.961 29.4733 137.96 29.2534 137.96 29.0349C137.957 28.0037 137.955 26.9699 137.954 25.9374C137.953 24.7466 137.949 23.5505 137.944 22.3705C137.94 21.4507 137.938 20.5335 137.937 19.6083C137.937 19.0585 137.936 18.5087 137.932 17.959C137.929 17.4414 137.929 16.9238 137.93 16.4035C137.93 16.2144 137.929 16.024 137.927 15.835C137.911 14.0515 137.911 14.0515 138.531 13.2604C139.29 12.7281 140.251 12.7804 141.084 13.1263L141.094 13.141Z" fill="white"/>
<path d="M114.219 19.5773C116.409 19.4995 118.452 20.0895 120.145 21.5082C121.529 22.8491 122.362 24.6727 122.402 26.617C122.434 29.1245 122.184 31.5516 120.346 33.4423C118.304 35.2793 115.979 35.5207 113.359 35.4402C111.477 35.3237 109.811 34.3661 108.535 32.9998C107.057 31.0823 106.6 28.7759 106.828 26.4025C107.109 24.2838 107.931 22.4468 109.61 21.0657C110.994 20.1243 112.579 19.6845 114.232 19.5638L114.219 19.5773ZM111.612 23.895C111.387 24.2383 111.224 24.5855 111.074 24.9677C111.022 25.1005 110.969 25.2332 110.914 25.37C110.452 27.0729 110.472 29.2318 111.369 30.7873C111.988 31.6548 112.78 32.3427 113.841 32.5304C114.931 32.6385 115.83 32.6185 116.744 31.9793C117.801 31.1091 118.356 30.0886 118.504 28.7209C118.522 28.316 118.525 27.9123 118.522 27.506C118.525 27.3706 118.528 27.2365 118.53 27.0971C118.53 25.7924 118.189 24.603 117.359 23.5705C116.474 22.715 115.477 22.4897 114.281 22.5071C113.163 22.5875 112.346 23.0368 111.607 23.8749L111.612 23.895Z" fill="white"/>
<path d="M193.5 21.0523C195.059 22.3275 195.771 24.2169 195.986 26.1746C196.097 27.4511 196.097 27.4511 195.751 28.0653C195.196 28.5265 194.642 28.4675 193.937 28.4662C193.792 28.4662 193.792 28.4662 193.643 28.4663C193.323 28.4662 193.003 28.4651 192.683 28.4641C192.461 28.4638 192.238 28.4636 192.017 28.4635C191.432 28.463 190.849 28.4617 190.27 28.4602C189.673 28.4588 189.078 28.4582 188.483 28.4575C187.313 28.4561 186.144 28.4538 184.975 28.451C185.08 28.7755 185.186 29.0987 185.292 29.4218C185.322 29.5131 185.351 29.6042 185.382 29.698C185.727 30.7453 186.152 31.3608 187.102 31.9374C188.768 32.7379 190.636 32.5515 192.369 32.0768C192.771 31.9186 193.155 31.7429 193.542 31.5512C194.065 31.3018 194.455 31.2173 195.02 31.3728C195.531 31.6477 195.531 31.6477 195.734 31.9427C195.87 32.4563 195.899 32.7821 195.742 33.297C194.822 34.6058 193.189 35.0939 191.671 35.3755C190.996 35.47 190.327 35.4731 189.642 35.4694C189.494 35.4687 189.345 35.4679 189.192 35.4672C186.894 35.4331 184.905 34.7752 183.239 33.1474C181.492 31.1226 181.21 28.7358 181.358 26.1747C181.579 24.351 182.539 22.5676 183.911 21.3474C186.733 19.2019 190.589 18.9069 193.518 21.0551L193.5 21.0523ZM186.849 22.8223C186.763 22.8776 186.678 22.9329 186.591 22.9899C185.518 23.7945 185.248 24.9074 184.965 26.1813H192.758C192.609 24.8458 192.432 23.7945 191.401 22.8827C190.131 21.94 188.149 21.9789 186.846 22.8282L186.849 22.8223Z" fill="white"/>
<path d="M134.375 19.5773C134.881 19.6322 135.08 19.7932 135.434 20.1552C135.736 20.6875 135.756 21.1595 135.702 21.7643C135.525 22.2752 135.407 22.5031 134.942 22.7847C134.453 22.9872 134.046 23.0475 133.518 23.0958C132.285 23.2339 131.206 23.5316 130.319 24.4501C129.832 25.2346 129.633 25.9251 129.626 26.8504C129.624 27.0877 129.624 27.0877 129.622 27.3304C129.621 27.5007 129.62 27.6723 129.619 27.848C129.616 28.1162 129.613 28.3857 129.61 28.6539C129.603 29.3163 129.597 29.9787 129.593 30.6384C129.591 31.0099 129.588 31.3813 129.583 31.7541C129.579 32.104 129.576 32.454 129.576 32.804C129.573 32.9636 129.571 33.1231 129.569 33.2867C129.568 33.4262 129.567 33.5656 129.565 33.7091C129.488 34.2978 129.283 34.755 128.841 35.1573C128.237 35.5153 127.643 35.514 126.96 35.451C126.253 35.2109 125.964 34.8958 125.616 34.2441C125.54 33.807 125.543 33.3779 125.547 32.9341C125.546 32.8044 125.545 32.6753 125.544 32.5412C125.541 32.1134 125.543 31.687 125.545 31.2593C125.544 30.9616 125.544 30.6639 125.543 30.3662C125.542 29.7427 125.544 29.1205 125.546 28.5024C125.549 27.7045 125.547 26.9067 125.544 26.1021C125.542 25.488 125.543 24.8739 125.544 24.2651C125.545 23.9714 125.544 23.6764 125.543 23.3828C125.542 22.9711 125.544 22.5595 125.547 22.1491C125.546 22.0279 125.544 21.9064 125.543 21.7817C125.553 21.0268 125.662 20.6165 126.153 20.0385C126.745 19.6202 127.477 19.7033 128.169 19.7704C128.685 19.9849 128.947 20.2437 129.244 20.709C129.342 21.114 129.342 21.114 129.404 21.5471C129.425 21.6919 129.447 21.8367 129.468 21.9855C129.483 22.0955 129.498 22.2055 129.513 22.3181C129.557 22.2403 129.601 22.1625 129.647 22.0821C130.452 20.7626 131.542 20.1914 133.006 19.7757C133.463 19.686 133.904 19.6459 134.363 19.6001L134.375 19.5773Z" fill="white"/>
<path d="M135.181 42.1046L135.568 42.2135C135.726 42.5286 135.73 42.7431 135.746 43.0944C135.754 43.2741 135.754 43.2741 135.763 43.4578C135.768 43.5835 135.773 43.7086 135.779 43.8386C135.785 43.9653 135.79 44.0921 135.796 44.2221C135.811 44.5359 135.824 44.8483 135.838 45.1621L136.157 44.902C136.796 44.4018 137.332 44.4246 138.119 44.4917C138.756 44.7156 139.108 44.9918 139.463 45.5644C139.897 46.5714 139.991 47.5087 139.626 48.5546C139.362 49.1352 139.071 49.5093 138.522 49.8593C137.889 50.0698 137.138 50.153 136.507 49.8782C136.261 49.7133 136.038 49.5323 135.828 49.3231C135.778 49.4337 135.728 49.5443 135.678 49.6583C135.425 49.9935 135.425 49.9935 135.014 50.0606C134.884 50.0385 134.753 50.0163 134.619 49.9935C134.323 49.551 134.315 49.4143 134.314 48.8994C134.312 48.7586 134.311 48.6178 134.31 48.4716C134.31 48.2437 134.31 48.2437 134.31 48.0103C134.31 47.8534 134.309 47.6979 134.309 47.537C134.308 47.2071 134.308 46.8759 134.308 46.5461C134.309 46.0392 134.306 45.5323 134.302 45.0308C134.302 44.7104 134.302 44.3899 134.302 44.0681C134.301 43.9165 134.299 43.7637 134.298 43.6068C134.299 43.466 134.3 43.3252 134.301 43.179C134.301 43.0549 134.3 42.931 134.3 42.8022C134.351 42.4871 134.351 42.4871 134.529 42.2404C134.753 42.0835 134.753 42.0835 135.174 42.1093L135.181 42.1046ZM136.106 45.8323C135.623 46.3633 135.635 46.9345 135.654 47.6157C135.736 48.2272 136.008 48.5932 136.483 48.97C136.935 49.0857 137.269 49.0234 137.718 48.9113C138.195 48.615 138.314 48.2703 138.449 47.746C138.566 47.0367 138.498 46.448 138.121 45.8285C137.393 45.3177 136.821 45.2975 136.106 45.8285V45.8323Z" fill="white"/>
<path d="M153.322 42.1046C153.65 42.2135 153.65 42.2135 153.918 42.6155C153.961 42.8823 153.961 42.8823 153.974 43.1827C153.979 43.2902 153.984 43.3972 153.99 43.5085C153.994 43.6202 153.998 43.7325 154.002 43.8478C154.008 43.9611 154.013 44.0744 154.018 44.191C154.031 44.47 154.042 44.7502 154.053 45.0291C154.265 44.8984 154.265 44.8984 154.48 44.765C155.105 44.4096 155.63 44.3774 156.334 44.4927C157.051 44.8508 157.502 45.3322 157.839 46.0482C158.061 47.0432 158.099 48.1534 157.537 49.0518C157.123 49.4903 156.661 49.9529 156.046 50.0227C155.206 50.0471 154.738 49.9375 154.043 49.4541L153.909 49.32L153.749 49.6552C153.506 49.9905 153.506 49.9905 153.16 50.0495C152.833 49.9907 152.833 49.9907 152.564 49.7223C152.529 49.4112 152.529 49.4112 152.527 49.0197C152.526 48.8735 152.524 48.726 152.523 48.5745C152.523 48.4149 152.523 48.2567 152.523 48.0917C152.523 47.9295 152.522 47.7659 152.522 47.5983C152.521 47.2537 152.521 46.9091 152.521 46.5645C152.522 46.0361 152.519 45.5065 152.515 44.9822C152.515 44.6483 152.515 44.3144 152.515 43.9805C152.514 43.821 152.513 43.6627 152.511 43.4978C152.512 43.3516 152.513 43.2041 152.514 43.0526C152.514 42.9229 152.514 42.7938 152.514 42.6597C152.53 42.5573 152.547 42.4546 152.564 42.3486C152.967 42.0805 152.967 42.0805 153.311 42.1059L153.322 42.1046ZM154.187 45.8323C153.791 46.4813 153.73 47.0968 153.85 47.8437C153.972 48.3318 154.159 48.6563 154.549 48.9727C155.03 49.1024 155.461 49.0758 155.933 48.9224C156.461 48.3955 156.627 48.0106 156.646 47.2865C156.64 46.6094 156.54 46.2232 156.067 45.7043C155.423 45.2483 154.776 45.3436 154.186 45.8383L154.187 45.8323Z" fill="white"/>
<path d="M176.569 42.1045C176.879 42.2134 176.879 42.2134 177.013 42.3473C177.027 42.5765 177.032 42.8058 177.033 43.0351C177.034 43.1813 177.035 43.3288 177.036 43.4803C177.036 43.6399 177.036 43.7995 177.036 43.9644C177.037 44.2084 177.037 44.2084 177.037 44.4578C177.038 44.8025 177.038 45.1484 177.038 45.493C177.039 46.0227 177.041 46.5537 177.044 47.0887C177.044 47.4239 177.044 47.7578 177.044 48.093C177.045 48.2526 177.046 48.4122 177.047 48.5758C177.047 48.7233 177.046 48.8708 177.046 49.0223C177.046 49.1524 177.046 49.2824 177.047 49.4165C177.013 49.7276 177.013 49.7276 176.744 49.9958C176.408 50.0293 176.408 50.0293 176.072 49.9958L175.804 49.7276V49.1913H175.535L175.401 49.5935C174.725 50.0602 174.043 50.1125 173.251 49.9958C172.536 49.6391 172.088 49.1591 171.746 48.4403C171.527 47.44 171.481 46.429 172.01 45.5172C172.349 45.072 172.753 44.7381 173.257 44.486C173.545 44.4541 173.545 44.4541 173.887 44.4442C173.999 44.4392 174.111 44.4341 174.225 44.429C174.752 44.5089 175.091 44.7414 175.542 45.023L175.552 44.5135C175.56 44.2922 175.567 44.071 175.575 43.8497C175.578 43.6835 175.578 43.6835 175.581 43.5145C175.614 42.6939 175.614 42.6939 175.929 42.2621C176.214 42.073 176.214 42.073 176.575 42.0985L176.569 42.1045ZM173.142 46.1005C172.895 46.724 172.895 47.3167 172.982 47.9777C173.201 48.4216 173.38 48.671 173.763 48.9754C174.214 49.0911 174.549 49.0287 174.998 48.9166C175.498 48.5519 175.679 48.1751 175.804 47.5757C175.804 46.8704 175.726 46.259 175.267 45.6985C174.48 45.15 173.748 45.437 173.143 46.1007L173.142 46.1005Z" fill="white"/>
<path d="M194.709 42.1045C195.029 42.1968 195.029 42.1968 195.164 42.3311C195.177 42.5604 195.182 42.7897 195.183 43.019C195.184 43.1652 195.185 43.3127 195.186 43.4642C195.186 43.6238 195.186 43.7833 195.186 43.9483C195.187 44.1923 195.187 44.1923 195.187 44.4417C195.188 44.7863 195.188 45.1323 195.188 45.4769C195.189 46.0065 195.191 46.5375 195.194 47.0726C195.194 47.4078 195.194 47.7417 195.194 48.0769C195.195 48.2365 195.196 48.396 195.197 48.5596C195.197 48.7071 195.197 48.8546 195.196 49.0062C195.196 49.1362 195.197 49.2663 195.197 49.4004C195.164 49.7115 195.164 49.7115 194.894 49.9797C194.566 50.0384 194.566 50.0384 194.222 49.9797C193.979 49.6444 193.979 49.6444 193.819 49.3092L193.509 49.5693C192.86 50.0668 192.192 50.0682 191.399 49.9797C190.683 49.6216 190.232 49.1403 189.894 48.4242C189.673 47.4279 189.636 46.319 190.197 45.4206C190.663 44.9177 191.109 44.5248 191.823 44.4551C192.509 44.4409 192.966 44.5069 193.556 44.8842L193.825 45.1524C193.827 45.0684 193.829 44.9848 193.831 44.8976C193.841 44.5181 193.854 44.14 193.867 43.7605C193.87 43.6284 193.873 43.4964 193.876 43.3609C193.881 43.2348 193.885 43.1088 193.89 42.9788C193.894 42.8623 193.897 42.7455 193.901 42.6261C193.998 42.1461 194.253 42.0562 194.715 42.1112L194.709 42.1045ZM191.538 45.8188C191.092 46.4638 191.036 47.0712 191.135 47.8302C191.306 48.3143 191.452 48.561 191.84 48.8949C192.344 49.0893 192.633 49.0504 193.151 48.9032C193.503 48.6203 193.751 48.3977 193.931 47.9807C194.005 47.1493 193.969 46.5593 193.554 45.8218C193.208 45.5416 192.984 45.4343 192.546 45.3686C192.113 45.4334 191.882 45.5496 191.538 45.8218V45.8188Z" fill="white"/>
<path d="M166.491 44.5182C166.734 44.8535 166.734 44.8535 166.894 45.1887L167.214 44.9286C167.88 44.4056 168.487 44.4539 169.31 44.5182C169.796 44.7006 169.931 44.836 170.197 45.2785C170.408 45.7787 170.435 46.1327 170.433 46.6731C170.433 46.8044 170.433 46.8044 170.433 46.9386C170.433 47.1223 170.432 47.306 170.43 47.4884C170.426 47.7699 170.427 48.0502 170.428 48.3318C170.422 49.7129 170.422 49.7129 170.116 50.0079C169.788 50.0667 169.788 50.0667 169.444 50.0079C169.075 49.5198 168.99 49.1524 168.982 48.5463C168.978 48.3988 168.975 48.25 168.971 48.0985C168.969 47.9456 168.967 47.7927 168.966 47.6345C168.961 47.3301 168.955 47.0244 168.948 46.72C168.947 46.5846 168.945 46.4505 168.943 46.311C168.939 45.9597 168.939 45.9597 168.638 45.7157C167.904 45.6496 167.904 45.6496 167.241 45.8913C166.86 46.3003 166.876 46.7214 166.863 47.2591C166.859 47.4012 166.854 47.5447 166.85 47.6908C166.841 47.9925 166.834 48.2929 166.827 48.5946C166.822 48.7367 166.817 48.8802 166.813 49.0264C166.809 49.1572 166.806 49.2879 166.802 49.4233C166.762 49.7424 166.762 49.7424 166.493 50.0106C166.015 49.9771 166.015 49.9771 165.553 49.8765C165.346 49.4622 165.394 49.025 165.391 48.5691C165.391 48.4663 165.39 48.364 165.389 48.258C165.388 48.0408 165.387 47.8222 165.386 47.605C165.385 47.2725 165.381 46.9386 165.377 46.606C165.376 46.3942 165.375 46.1837 165.375 45.9718C165.373 45.872 165.371 45.772 165.37 45.6701C165.373 44.9822 165.373 44.9822 165.602 44.6523C165.927 44.4458 166.118 44.4378 166.494 44.5129L166.491 44.5182Z" fill="white"/>
<path d="M182.212 44.7864C182.754 45.2329 182.973 45.6553 183.052 46.3553C183.052 46.5121 183.052 46.669 183.051 46.8313C183.051 47.0029 183.051 47.1746 183.051 47.3516C183.05 47.4398 183.049 47.5286 183.047 47.6184C183.044 47.8906 183.045 48.1615 183.046 48.4337C183.038 49.7638 183.038 49.7638 182.734 50.0696C182.406 50.1199 182.406 50.1199 182.062 50.0696C181.819 49.8014 181.819 49.8014 181.659 49.5332L181.339 49.8014C180.764 50.1822 180.174 50.1782 179.512 50.0696C178.994 49.8068 178.559 49.5238 178.302 48.9968C178.195 48.3626 178.203 47.9362 178.571 47.4012C179.559 46.724 180.64 46.8246 181.796 46.8568C181.648 46.1313 181.648 46.1313 181.124 45.6499C180.467 45.6005 179.993 45.7044 179.377 45.9181C179 45.9433 179 45.9433 178.705 45.9181C178.571 45.784 178.571 45.784 178.563 45.4408L178.571 45.1136C179.65 44.5504 181.071 44.2018 182.213 44.7944L182.212 44.7864ZM180.425 47.6291C180.252 47.6636 180.252 47.6636 180.075 47.6988C179.753 47.7703 179.753 47.7703 179.509 48.0569C179.556 48.6603 179.556 48.6603 179.912 49.1296C180.299 49.2547 180.531 49.2758 180.928 49.1799C181.338 48.9492 181.543 48.7226 181.793 48.3244C181.838 47.961 181.838 47.961 181.793 47.6539C181.295 47.5279 180.928 47.5232 180.423 47.6287L180.425 47.6291Z" fill="white"/>
<path d="M159.637 44.5182C159.973 44.5517 159.973 44.5517 160.242 44.8199C160.283 45.1471 160.283 45.1471 160.293 45.5561C160.3 45.7773 160.3 45.7773 160.307 46.0026C160.311 46.1568 160.314 46.3123 160.318 46.4706C160.326 46.7749 160.335 47.078 160.344 47.3824C160.347 47.5178 160.35 47.6532 160.353 47.7927C160.375 48.1547 160.431 48.49 160.51 48.8426C160.723 48.8572 160.936 48.8676 161.149 48.8761L161.508 48.8951C161.97 48.8251 162.1 48.6658 162.392 48.3064C162.475 47.9524 162.475 47.9524 162.469 47.5635C162.473 47.4214 162.476 47.2806 162.48 47.1344C162.481 46.9869 162.483 46.8394 162.484 46.6879C162.49 46.3956 162.496 46.1033 162.502 45.811C162.504 45.6817 162.505 45.5522 162.507 45.4194C162.526 45.0869 162.526 45.0869 162.66 44.6846C163.114 44.6008 163.114 44.6008 163.601 44.5505C163.946 44.8951 163.903 45.1284 163.907 45.5991C163.907 45.7054 163.906 45.8123 163.906 45.9209C163.906 46.0845 163.906 46.0845 163.906 46.2521C163.907 46.4828 163.906 46.7134 163.905 46.944C163.903 47.298 163.905 47.652 163.907 48.006C163.906 48.23 163.906 48.4539 163.906 48.6778C163.906 48.7842 163.907 48.891 163.907 48.9996C163.901 49.7492 163.901 49.7492 163.601 50.0482C163.273 50.107 163.273 50.107 162.929 50.0482C162.686 49.713 162.686 49.713 162.526 49.3778L162.206 49.6379C161.568 50.1381 161.033 50.1139 160.244 50.0482C159.713 49.8753 159.509 49.7626 159.218 49.2879C159.012 48.7878 158.984 48.4311 158.985 47.8934C158.985 47.8058 158.985 47.7177 158.985 47.6279C158.985 47.4442 158.986 47.2605 158.989 47.0781C158.992 46.7965 158.991 46.5163 158.991 46.2347C158.997 44.5854 158.997 44.5854 159.638 44.5183L159.637 44.5182Z" fill="white"/>
<path d="M140.691 44.5181C141.005 44.5566 141.318 44.6011 141.631 44.6522C141.691 44.8037 141.691 44.8037 141.752 44.958C141.933 45.4125 142.114 45.8657 142.295 46.3257C142.358 46.4839 142.421 46.6435 142.486 46.8071C142.546 46.9572 142.607 47.1088 142.669 47.2643C142.725 47.4038 142.78 47.5432 142.837 47.688C142.947 47.9991 142.947 47.9991 143.11 48.1453C143.15 48.0404 143.191 47.9361 143.233 47.8275C143.384 47.4386 143.54 47.0511 143.698 46.6636C143.798 46.4128 143.895 46.1621 143.992 45.91C144.056 45.7531 144.12 45.5962 144.187 45.4353C144.244 45.2905 144.302 45.1443 144.361 44.9955C144.588 44.6603 144.588 44.6603 145 44.5369C145.395 44.5267 145.395 44.5267 145.663 44.6608C145.742 45.4519 145.469 46.0151 145.149 46.7124C145.096 46.8313 145.043 46.9497 144.989 47.0731C144.821 47.4526 144.65 47.8307 144.48 48.2089C144.366 48.4636 144.254 48.7171 144.14 48.9718C143.844 49.6356 143.548 50.298 143.245 50.9564C143.175 51.1092 143.105 51.2621 143.032 51.4203C142.842 51.7609 142.842 51.7609 142.438 52.0291C142.077 51.9788 142.077 51.9788 141.767 51.895C141.64 51.5517 141.619 51.3962 141.741 51.0462C141.847 50.825 141.954 50.6051 142.061 50.3838C142.294 49.6047 141.99 48.8954 141.665 48.1847C141.591 48.0198 141.517 47.8549 141.444 47.6899C141.328 47.4338 141.212 47.1777 141.095 46.9229C140.981 46.6735 140.869 46.4241 140.759 46.1734C140.692 46.0259 140.625 45.8784 140.555 45.7255C140.415 45.291 140.416 45.0778 140.559 44.6487L140.693 44.5146L140.691 44.5181Z" fill="white"/>
<path d="M187.991 44.5182C188.319 44.5685 188.319 44.5685 188.587 44.8373C188.614 45.2088 188.625 45.5668 188.623 45.9396C188.623 46.0487 188.624 46.1581 188.624 46.2708C188.624 46.5014 188.623 46.732 188.622 46.9627C188.621 47.3167 188.622 47.6707 188.624 48.0247C188.624 48.2486 188.624 48.4725 188.623 48.6965C188.624 48.8028 188.624 48.9097 188.625 49.0183C188.618 49.7678 188.618 49.7678 188.318 50.0669C187.99 50.1172 187.99 50.1172 187.646 50.0669C187.304 49.741 187.245 49.5453 187.191 49.0719C187.188 48.8909 187.188 48.7099 187.189 48.5288C187.189 48.4327 187.189 48.3371 187.188 48.2379C187.188 48.0354 187.189 47.8316 187.19 47.6291C187.193 47.3193 187.19 47.0096 187.188 46.6998C187.188 46.5027 187.189 46.3043 187.189 46.1072C187.189 46.0148 187.188 45.9221 187.187 45.8269C187.193 45.4166 187.224 45.139 187.426 44.777C187.647 44.5678 187.647 44.5678 187.991 44.5182Z" fill="white"/>
<path d="M150.231 44.5182C150.575 44.5685 150.575 44.5685 150.796 44.777C151.042 45.2168 151.038 45.6151 151.032 46.1058C151.033 46.2506 151.033 46.2506 151.033 46.3968C151.034 46.5993 151.033 46.8031 151.031 47.0056C151.029 47.3153 151.031 47.6251 151.034 47.9348C151.034 48.1319 151.033 48.3304 151.032 48.5275C151.034 48.6656 151.034 48.6656 151.035 48.8078C151.029 49.2181 150.997 49.4956 150.796 49.8577C150.575 50.0669 150.575 50.0669 150.231 50.1165C149.903 50.0662 149.903 50.0662 149.635 49.7973C149.608 49.4259 149.597 49.0679 149.599 48.6951C149.599 48.586 149.598 48.4766 149.598 48.3639C149.598 48.1333 149.598 47.9026 149.599 47.672C149.601 47.318 149.599 46.964 149.598 46.61C149.598 46.3861 149.598 46.1621 149.599 45.9382C149.598 45.8319 149.598 45.725 149.597 45.6164C149.606 44.6134 149.606 44.6134 150.231 44.5182Z" fill="white"/>
<path d="M185.572 48.4068C185.833 48.624 185.833 48.624 185.975 48.9432C185.958 49.3615 185.958 49.3615 185.841 49.7477C185.437 50.0159 185.437 50.0159 185.026 49.9824C184.631 49.8818 184.631 49.8818 184.362 49.6136C184.318 49.1979 184.295 48.9217 184.513 48.557C184.888 48.333 185.143 48.3438 185.572 48.4068Z" fill="white"/>
<path d="M150.231 42.1045C150.702 42.1297 150.702 42.1297 150.97 42.2641C151.11 42.661 151.14 42.8554 150.97 43.2443C150.702 43.4709 150.702 43.4709 150.223 43.5205C149.761 43.4702 149.761 43.4702 149.492 43.2014C149.459 42.7991 149.459 42.7991 149.492 42.3968C149.761 42.1286 149.761 42.1286 150.231 42.1031V42.1045Z" fill="white"/>
<path d="M188.394 42.1046C188.662 42.3728 188.662 42.3728 188.696 42.7751C188.662 43.1773 188.662 43.1773 188.394 43.4455C187.923 43.479 187.923 43.479 187.453 43.4455C187.184 43.1773 187.184 43.1773 187.168 42.6919L187.185 42.2387C187.589 42.0362 187.948 42.0805 188.394 42.1046H188.394Z" fill="white"/>
</svg>
